<?xml version="1.0" encoding="UTF-8"?>
<!DOCTYPE svg PUBLIC "-//W3C//DTD SVG 1.1//EN" "http://www.w3.org/Graphics/SVG/1.1/DTD/svg11.dtd">
<!-- Creator: CorelDRAW 2018 (64 Bit Versión de evaluación) -->
<svg xmlns="http://www.w3.org/2000/svg" xml:space="preserve" width="254mm" height="35.3058mm" version="1.1" style="shape-rendering:geometricPrecision; text-rendering:geometricPrecision; image-rendering:optimizeQuality; fill-rule:evenodd; clip-rule:evenodd"
viewBox="0 0 25399.98 3530.58"
 xmlns:xlink="http://www.w3.org/1999/xlink">
 <defs>
  <style type="text/css">
   <![CDATA[
    .str0 {stroke:#FEFEFE;stroke-width:20;stroke-miterlimit:22.9256;stroke-opacity:0.301961}
    .str1 {stroke:#FEFEFE;stroke-width:20;stroke-miterlimit:22.9256;stroke-opacity:0.301961}
    .fil0 {fill:none}
    .fil3 {fill:#1B303B;fill-opacity:0.301961}
    .fil2 {fill:#1B303B;fill-rule:nonzero;fill-opacity:0.301961}
    .fil1 {fill:#1B303B;fill-rule:nonzero;fill-opacity:0.301961}
   ]]>
  </style>
 </defs>
 <g id="Capa_x0020_1">
  <metadata id="CorelCorpID_0Corel-Layer"/>
  <rect class="fil0" x="-0.01" y="-0.01" width="25399.99" height="3530.59"/>
  <g id="_295195601296">
   <polygon class="fil1 str0" points="24925.51,3113.61 24925.51,2491.63 24312.92,2491.63 24312.92,3416.2 24846.72,3416.2 24846.72,3481.94 25106.8,3481.94 25106.8,3113.61 "/>
   <polygon class="fil1 str0" points="23737.47,2328.94 23569.47,2328.94 23569.47,2361.6 23471.21,2361.6 23471.21,3336.99 23809.97,3336.99 23809.97,2361.6 23737.47,2361.6 "/>
   <polygon class="fil1 str0" points="23255.82,1828.73 23258.46,1828.73 23258.46,1816.13 23107.74,1816.13 23107.74,1828.73 23110.42,1828.73 23110.42,1863.49 22392.81,1863.49 22392.81,1828.73 22395.45,1828.73 22395.45,1816.13 22244.72,1816.13 22244.72,1828.73 22247.36,1828.73 22247.36,1863.49 22231,1863.49 22231,3438.18 22514.29,3438.18 22514.29,3333.28 22561.6,3309.51 22941.58,3309.51 22988.89,3333.28 22988.89,3438.18 23272.19,3438.18 23272.19,1863.49 23255.82,1863.49 "/>
   <path class="fil1 str0" d="M21082.2 1958.72l-5.73 0 0 20.43 -42.96 0 0 -443.75c0,0 0.35,-4.22 -5.04,-4.22 -5.37,0 -5.03,4.22 -5.03,4.22l0 78.94 -192.16 0 0 -78.94c0,0 0.34,-4.22 -5.05,-4.22 -5.38,0 -5.04,4.22 -5.04,4.22l0 78.94 -192.09 0 0 -78.94c0,0 0.28,-4.22 -5.09,-4.22 -5.39,0 -5.05,4.22 -5.05,4.22l0 115.09 -50.4 0 0 -83.14 -44.7 0 0 83.14 -35.13 0 0 -83.14 -44.73 0 0 366.52 -94.42 0 0 658.92 -532.81 0 0 511.19 -134.11 0 0 -874.3 -435.05 0 0 1201.87 345.03 0 0 35.07 779.8 0 0 -263.48 71.56 0 0 156.42 44.73 0 0 -81.83 35.13 0 0 81.83 362.7 0 0 71.99 599.9 0 0 -497.71 -404.26 0 0 -975.12z"/>
   <polygon class="fil1 str0" points="18690.43,2085.8 18585.4,2085.8 18585.4,2812.71 17967.46,2812.71 17967.46,3464.04 18779.08,3464.04 18779.08,3405.52 18972.76,3405.52 18972.76,1769.6 18690.43,1769.6 "/>
   <path class="fil1 str0" d="M19314.81 1126.52l-66.2 0 0 -57.2c0,0 -0.59,-30.95 33.13,-30.95 33.72,0 33.07,30.95 33.07,30.95l0 57.2zm-117.48 391.94l-28.6 0 0 -57.32 28.6 0 0 57.32zm0 124.9l-28.6 0 0 -61.91 28.6 0 0 61.91zm0 115.67l-28.6 0 0 -61.94 28.6 0 0 61.94zm0 115.62l-28.6 0 0 -61.86 28.6 0 0 61.86zm0 115.64l-28.6 0 0 -61.91 28.6 0 0 61.91zm0 115.69l-28.6 0 0 -61.94 28.6 0 0 61.94zm0 115.58l-28.6 0 0 -61.86 28.6 0 0 61.86zm0 115.67l-28.6 0 0 -61.91 28.6 0 0 61.91zm0 115.66l-28.6 0 0 -61.9 28.6 0 0 61.9zm0 115.6l-28.6 0 0 -61.87 28.6 0 0 61.87zm0 115.69l-28.6 0 0 -61.94 28.6 0 0 61.94zm0 115.66l-28.6 0 0 -61.93 28.6 0 0 61.93zm0 115.59l-28.6 0 0 -61.86 28.6 0 0 61.86zm0 115.67l-28.6 0 0 -61.91 28.6 0 0 61.91zm0 115.66l-28.6 0 0 -61.9 28.6 0 0 61.9zm-126.31 -1628.3l-28.54 0 0 -57.32 28.54 0 0 57.32zm0 124.9l-28.54 0 0 -61.91 28.54 0 0 61.91zm0 115.67l-28.54 0 0 -61.94 28.54 0 0 61.94zm0 115.62l-28.54 0 0 -61.86 28.54 0 0 61.86zm0 115.64l-28.54 0 0 -61.91 28.54 0 0 61.91zm0 115.69l-28.54 0 0 -61.94 28.54 0 0 61.94zm0 115.58l-28.54 0 0 -61.86 28.54 0 0 61.86zm0 115.67l-28.54 0 0 -61.91 28.54 0 0 61.91zm0 115.66l-28.54 0 0 -61.9 28.54 0 0 61.9zm0 115.6l-28.54 0 0 -61.87 28.54 0 0 61.87zm0 115.69l-28.54 0 0 -61.94 28.54 0 0 61.94zm0 115.66l-28.54 0 0 -61.93 28.54 0 0 61.93zm0 115.59l-28.54 0 0 -61.86 28.54 0 0 61.86zm0 115.67l-28.54 0 0 -61.91 28.54 0 0 61.91zm0 115.66l-28.54 0 0 -61.9 28.54 0 0 61.9zm279.35 -2540.98c-1.78,-14.43 -11.98,-27.02 -17.57,-32.94l-0.05 -16.91c1.76,-1.2 2.92,-3.23 2.92,-5.48 0,-3.62 -2.92,-6.61 -6.63,-6.61 -3.57,0 -6.44,2.99 -6.44,6.61 0,2.25 1.17,4.28 2.87,5.48l-1.63 444.89 -108.3 0 0 7.01 3.63 0 0 129.96 -3.63 0 0 174.46 -229.55 0 0 103.74 -73.45 0 0 14.91 9.13 7.04 0 98.84 -27.99 0 0 37.18 27.99 0 0 76.88 -27.99 0 0 37.25 27.99 0 0 76.88 -27.99 0 0 37.18 27.99 0 0 76.88 -27.99 0 0 37.18 27.99 0 0 76.88 -27.99 0 0 37.26 27.99 0 0 76.88 -27.99 0 0 37.17 27.99 0 0 76.88 -27.99 0 0 37.18 27.99 0 0 76.86 -27.99 0 0 37.28 27.99 0 0 76.86 -27.99 0 0 37.2 27.99 0 0 76.91 -27.99 0 0 37.15 27.99 0 0 76.85 -27.99 0 0 37.28 27.99 0 0 76.88 -27.99 0 0 37.19 27.99 0 0 76.88 -27.99 0 0 37.25 27.99 0 0 76.89 -27.99 0 0 37.17 27.99 0 0 361.13 426.29 0 0 -1980.3 9.08 -7.04 0 -14.91 -9.08 0 0 -278.2 -3.67 0 0 -129.96 3.67 0 0 -7.01 -13.59 0 -1.29 -345.41c2.33,7.27 5.46,13.84 9.42,17.5 8.44,7.9 21.83,17.71 27.28,37.85 5.54,20.16 13.96,17.65 15.21,3.01 1.24,-14.63 8.5,-31.1 -10.92,-53.67 -19.5,-22.54 -21.32,-34.2 -23.7,-54.32z"/>
   <path class="fil1 str0" d="M17414.28 2853.05l-334.59 -600.77 339.45 600.77 -4.86 0zm-10.88 0l-324.86 -592.7 330.14 592.7 -5.28 0zm-328.31 0c-30.52,-121.82 -62.67,-243.11 -96.29,-364.04 -34.38,-123.66 -70.26,-246.82 -108.56,-369.39 -37.55,-120.23 -76.77,-239.97 -120.79,-358.35 0.54,-2.82 1.55,-5.59 3.2,-7.67 1.69,-2.13 3.89,-3.33 6.77,-3.63l2.22 -0.24c9.27,-0.95 21.57,-2.25 26.97,-8.09l609.1 1111.41 -322.62 0zm-246.49 0c-8.87,-27.6 -18.02,-55.18 -27.49,-82.63 -16.23,-47.05 -33.14,-93.91 -52.07,-140.3 0.75,-2.29 2.1,-4.68 4.66,-5.53 2.62,-0.89 6.57,-0.79 10.06,-0.68 4.43,0.09 8.28,0.14 9.71,-1.89l220.21 212.69c1.78,6.11 3.55,12.25 5.32,18.34l-170.4 0zm-145.61 0c7,-25.22 13.75,-50.52 20.32,-75.83 12.27,-47.82 23.94,-95.84 33.56,-144.39 0.99,0.24 2.22,0.3 3.45,0 9.63,48.55 21.28,96.57 33.56,144.39 6.55,25.31 13.32,50.61 20.33,75.83l-111.22 0zm-34.41 0l-170.38 0c1.76,-6.09 3.57,-12.23 5.32,-18.34l220.17 -212.69c1.45,2.03 5.3,1.98 9.74,1.89 3.5,-0.11 7.45,-0.21 10.07,0.68 2.57,0.85 3.89,3.24 4.64,5.53 -18.91,46.39 -35.84,93.25 -52.06,140.3 -9.5,27.45 -18.61,55.03 -27.5,82.63zm-569.17 0l609.2 -1111.41c5.38,5.84 17.66,7.14 26.93,8.09l2.24 0.24c2.86,0.3 5.01,1.5 6.77,3.63 1.66,2.12 2.64,4.85 3.25,7.65 -44.09,118.38 -83.31,238.14 -120.88,358.37 -38.28,122.57 -74.19,245.73 -108.54,369.39 -33.61,120.93 -65.79,242.22 -96.29,364.04l-322.68 0zm-10.89 0l330.2 -592.82 -324.93 592.82 -5.27 0zm-10.48 0l339.38 -600.62 -334.54 600.62 -4.84 0zm429.97 -33.75c0.47,-1.6 0.93,-3.19 1.38,-4.76l145.69 -133.16 -147.07 137.92zm151.16 -138.31l-154.25 148.91c0.58,-1.98 1.16,-3.98 1.77,-5.97l152.48 -142.94zm351.34 142.94c0.59,1.99 1.2,3.99 1.76,5.97l-154.24 -148.91 152.48 142.94zm-148.33 -142.52l145.61 133.13c0.47,1.57 0.95,3.16 1.4,4.76l-147.01 -137.89zm-32.91 -545.02c29.15,125.05 60.69,249.46 93.74,373.44 26.75,100.35 54.59,200.4 83.45,300.13l-214.12 -195.74c-0.54,-0.93 -1.23,-1.92 -2.12,-2.87 -3.94,-4.33 -12.67,-13.71 -31.62,-13.71 -18.95,0 -27.67,9.38 -31.65,13.71 -0.86,0.95 -1.56,1.94 -2.11,2.87l-214.12 195.74c28.88,-99.73 56.7,-199.78 83.43,-300.13 33.09,-123.98 64.62,-248.39 93.78,-373.44 25.66,-110.03 49.99,-220.37 70.67,-331.76 20.68,111.39 45.01,221.73 70.67,331.76zm1288.82 817.84c-9.92,-6.24 -178.22,-101.18 -532.94,-101.18l-140.34 0 -634.45 -1122.84c-0.04,-0.06 -0.08,-0.06 -0.08,-0.11 -0.56,-1.49 -1.29,-3.02 -2.35,-4.61 -12.32,-19.08 -24.8,-25.5 -49.33,-25.5 -24.53,0 -37.02,6.42 -49.37,25.5 -1.02,1.59 -1.76,3.12 -2.29,4.61 0,0.05 -0.06,0.05 -0.1,0.11l-634.46 1122.84 -140.36 0c-354.68,0 -521.16,94.35 -531.09,100.56 -22.82,9.93 -70.54,21.73 -70.54,53.12 0,25.23 13.62,45.97 14.12,46.72l143.76 350.87c0.44,0.75 1.23,1.19 2.11,1.19l2536.44 0c0.88,0 1.67,-0.44 2.11,-1.19l143.66 -350.73c0.57,-0.89 14.19,-21.63 14.19,-46.86 0,-31.39 -47.29,-43.82 -68.69,-52.5z"/>
   <polygon class="fil1 str0" points="22129.23,2535.37 21910.04,2535.37 21910.04,2650.87 21571.69,2650.87 21571.69,3194.95 21277.71,3194.95 21277.71,2555.23 21322.77,2555.23 21322.77,2103.87 21277.71,2103.87 21004.35,2216.93 20620.54,2216.93 20620.54,2989.17 20518.75,2989.17 20518.75,3180.53 20620.54,3180.53 20620.54,3392.69 21219.21,3392.69 21219.21,3427.66 21571.69,3427.66 21571.69,3432.71 22225.21,3432.71 22225.21,2650.87 22129.23,2650.87 "/>
   <path class="fil2 str1" d="M15347.66 3373.95l-9.96 0 0 -980.44 9.96 0 0 980.44zm-41.54 0l-9.96 0 0 -980.44 9.96 0 0 980.44zm-41.54 0l-9.96 0 0 -980.44 9.96 0 0 980.44zm-41.52 0l-9.96 0 0 -980.44 9.96 0 0 980.44zm-41.54 0l-9.97 0 0 -980.44 9.97 0 0 980.44zm-41.55 0l-9.96 0 0 -980.44 9.96 0 0 980.44zm-41.55 0l-9.95 0 0 -980.44 9.95 0 0 980.44zm-41.54 0l-9.95 0 0 -980.44 9.95 0 0 980.44zm-41.51 0l-9.96 0 0 -980.44 9.96 0 0 980.44zm-41.55 0l-10.01 0 0 -980.44 10.01 0 0 980.44zm-41.54 0l-10.01 0 0 -980.44 10.01 0 0 980.44zm-41.54 0l-10 0 0 -980.44 10 0 0 980.44zm-41.59 0l-9.95 0 0 -980.44 9.95 0 0 980.44zm-41.54 0l-9.94 0 0 -980.44 9.94 0 0 980.44zm-41.48 0l-9.97 0 0 -980.44 9.97 0 0 980.44zm-41.54 0l-9.96 0 0 -980.44 9.96 0 0 980.44zm-41.56 0l-9.94 0 0 -980.44 9.94 0 0 980.44zm-41.54 0l-9.97 0 0 -980.44 9.97 0 0 980.44zm-41.55 0l-9.93 0 0 -980.44 9.93 0 0 980.44zm-41.52 0l-9.96 0 0 -980.44 9.96 0 0 980.44zm-41.56 0l-9.96 0 0 -980.44 9.96 0 0 980.44zm-41.54 0l-9.94 0 0 -980.44 9.94 0 0 980.44zm-41.53 0l-9.95 0 0 -980.44 9.95 0 0 980.44zm-51.5 0l0 -114.21 9.94 0 0 114.21 -9.94 0zm-41.54 0l0 -114.21 9.94 0 0 114.21 -9.94 0zm-41.57 0l0 -114.21 9.99 0 0 114.21 -9.99 0zm-41.54 0l0 -114.21 9.97 0 0 114.21 -9.97 0zm-41.5 0l0 -114.21 9.96 0 0 114.21 -9.96 0zm-41.54 0l0 -114.21 9.96 0 0 114.21 -9.96 0zm-41.54 0l0 -114.21 9.95 0 0 114.21 -9.95 0zm-41.54 0l0 -114.21 9.95 0 0 114.21 -9.95 0zm-41.55 0l0 -114.21 9.94 0 0 114.21 -9.94 0zm-41.54 0l0 -114.21 9.96 0 0 114.21 -9.96 0zm-41.54 0l0 -114.21 9.95 0 0 114.21 -9.95 0zm-41.54 0l0 -114.21 9.95 0 0 114.21 -9.95 0zm-41.54 0l0 -114.21 9.95 0 0 114.21 -9.95 0zm-41.55 0l0 -114.21 9.96 0 0 114.21 -9.96 0zm-41.54 0l0 -114.21 9.94 0 0 114.21 -9.94 0zm-41.54 0l0 -114.21 9.95 0 0 114.21 -9.95 0zm-31.61 -64.43l-9.95 0 0 -39.35 9.95 0 0 39.35zm-38.29 0l-9.96 0 0 -39.35 9.96 0 0 39.35zm-128.34 -76.88l-1124.71 -687.72 53.36 -128.91 1159.83 645.97 0 170.66 -88.48 0zm-398.63 0l-780.27 -556.89 53.41 -128.95 1121.66 685.84 -394.8 0zm-397.82 0l-436.74 -425.77 53.52 -129.22 777.59 554.99 -394.37 0zm-395.85 0l-95.73 -293.23 54.02 -130.56 434.71 423.79 -393 0zm-217.18 0l120.26 -290.4 94.81 290.4 -215.07 0zm-51.88 0l-176.98 0 295.28 -285.7 -118.3 285.7zm-294.02 0l466.7 -417.14 -52.48 126.82 -300.05 290.32 -114.17 0zm-117.69 0l638.33 -547.35 -52.14 125.95 -471.48 421.4 -114.71 0zm-118.03 0l810.1 -677.15 -52.04 125.7 -643.1 551.45 -114.96 0zm-118.21 0l981.96 -806.73 -52 125.59 -814.9 681.14 -115.06 0zm-118.31 0l1153.87 -936.2 -51.98 125.56 -986.74 810.64 -115.15 0zm1210.39 -947.39l1105.71 578.36 0 196.08 -1159.07 -645.55 53.36 -128.89zm1145.57 596.32l0 0.61 -1.21 -0.61 1.21 0zm-9.96 -77.74l9.96 0 0 39.37 -9.96 0 0 -39.37zm0 -77.72l9.96 0 0 39.35 -9.96 0 0 -39.35zm0 -77.71l9.96 0 0 39.34 -9.96 0 0 -39.34zm0 -77.73l9.96 0 0 39.35 -9.96 0 0 -39.35zm0 -77.72l9.96 0 0 39.35 -9.96 0 0 -39.35zm0 -77.72l9.96 0 0 39.35 -9.96 0 0 -39.35zm48.25 466.34l0 20.66 -9.95 -5.2 0 -15.46 9.95 0zm-9.95 -77.74l9.95 0 0 39.37 -9.95 0 0 -39.37zm0 -77.72l9.95 0 0 39.35 -9.95 0 0 -39.35zm0 -77.71l9.95 0 0 39.34 -9.95 0 0 -39.34zm0 -77.73l9.95 0 0 39.35 -9.95 0 0 -39.35zm0 -77.72l9.95 0 0 39.35 -9.95 0 0 -39.35zm0 -77.72l9.95 0 0 39.35 -9.95 0 0 -39.35zm51.51 -21.72l0 530.45 -9.95 -5.21 0 -525.24 9.95 0zm41.53 0l0 552.17 -9.94 -5.2 0 -546.97 9.94 0zm41.56 0l0 573.9 -9.96 -5.2 0 -568.7 9.96 0zm41.54 0l0 595.63 -9.95 -5.2 0 -590.43 9.95 0zm41.54 0l0 617.36 -9.95 -5.21 0 -612.15 9.95 0zm41.54 0l0 639.11 -9.95 -5.23 0 -633.88 9.95 0zm41.55 0l0 660.81 -9.96 -5.2 0 -655.61 9.96 0zm41.52 0l0 682.55 -9.94 -5.21 0 -677.34 9.94 0zm41.56 0l0 704.29 -9.95 -5.23 0 -699.06 9.95 0zm41.54 0l0 726 -9.95 -5.18 0 -720.82 9.95 0zm41.55 0l0 747.75 -9.96 -5.2 0 -742.55 9.96 0zm41.54 0l0 769.48 -9.96 -5.21 0 -764.27 9.96 0zm41.51 0l0 791.19 -9.97 -5.21 0 -785.98 9.97 0zm41.56 0l0 812.91 -9.99 -5.22 0 -807.69 9.99 0zm41.52 0l0 834.64 -9.94 -5.2 0 -829.44 9.94 0zm-9.94 831.71l9.94 5.2 0 2.22 -9.94 0 0 -7.42zm-41.57 -21.75l9.99 5.22 0 23.95 -9.99 0 0 -29.17zm-41.54 -21.73l9.97 5.22 0 45.68 -9.97 0 0 -50.9zm-41.5 -21.69l9.96 5.2 0 67.39 -9.96 0 0 -72.59zm-41.54 -21.73l9.96 5.19 0 89.13 -9.96 0 0 -94.32zm-41.54 -21.72l9.95 5.18 0 110.86 -9.95 0 0 -116.04zm-41.54 -21.76l9.95 5.21 0 132.59 -9.95 0 0 -137.8zm-41.55 -21.73l9.94 5.22 0 154.31 -9.94 0 0 -159.53zm-41.54 -21.72l9.96 5.2 0 176.05 -9.96 0 0 -181.25zm-41.54 -21.73l9.95 5.2 0 197.78 -9.95 0 0 -202.98zm-41.54 185.97l9.95 5.55 0 11.46 -9.95 0 0 -17.01zm-41.54 -23.13l9.95 5.54 0 34.6 -9.95 0 0 -40.14zm-41.55 -23.13l9.96 5.54 0 57.73 -9.96 0 0 -63.27zm-41.54 -23.15l9.94 5.55 0 80.87 -9.94 0 0 -86.42zm-41.54 -23.12l9.95 5.55 0 103.99 -9.95 0 0 -109.54zm-79.86 69.35l9.96 0 0 39.35 -9.96 0 0 -39.35zm9.96 -77.72l0 39.35 -9.96 0 0 -39.35 9.96 0zm38.29 77.72l0 39.35 -9.95 0 0 -39.35 9.95 0zm-9.95 -38.37l0 -39.35 9.95 0 0 39.35 -9.95 0zm-28.34 -117.07l0 39.35 -9.92 0 -0.04 -0.03 0 -39.32 9.96 0zm0 -116.11l-9.96 0 0 -39.33 4.44 0 5.52 2.88 0 36.45zm38.29 0l-9.95 0 0 -21.63 9.95 5.23 0 16.4zm-9.95 77.72l0 -39.33 9.95 0 0 39.33 -9.95 0zm9.95 38.39l0 39.35 -9.95 0 0 -39.35 9.95 0zm-38.29 -38.39l-9.96 0 0 -39.33 9.96 0 0 39.33zm79.85 127.73l-9.95 -5.55 0 -199.78 9.95 5.2 0 200.13zm41.53 23.13l-9.94 -5.53 0 -201.2 9.94 5.2 0 201.53zm41.56 23.15l-9.96 -5.55 0 -202.6 9.96 5.2 0 202.95zm73.13 -164.7l9.95 5.2 0 205.77 -9.95 -5.55 0 -205.42zm-31.59 187.82l-9.95 -5.52 0 -204.03 9.95 5.21 0 204.34zm498.47 -802.24l0 839.13 -9.94 0 0 -839.13 9.94 0zm987.02 876.66l9.95 0 0 39.35 -9.95 0 0 -39.35zm0 -77.72l9.95 0 0 39.35 -9.95 0 0 -39.35zm0 -77.72l9.95 0 0 39.35 -9.95 0 0 -39.35zm0 -77.72l9.95 0 0 39.35 -9.95 0 0 -39.35zm0 -77.72l9.95 0 0 39.33 -9.95 0 0 -39.33zm0 -77.72l9.95 0 0 39.33 -9.95 0 0 -39.33zm0 -77.74l9.95 0 0 39.37 -9.95 0 0 -39.37zm0 -77.72l9.95 0 0 39.35 -9.95 0 0 -39.35zm0 -77.71l9.95 0 0 39.34 -9.95 0 0 -39.34zm0 -77.73l9.95 0 0 39.35 -9.95 0 0 -39.35zm0 -77.72l9.95 0 0 39.35 -9.95 0 0 -39.35zm0 -77.72l9.95 0 0 39.35 -9.95 0 0 -39.35zm38.34 854.94l9.95 0 0 39.35 -9.95 0 0 -39.35zm0 -77.72l9.95 0 0 39.35 -9.95 0 0 -39.35zm0 -77.72l9.95 0 0 39.35 -9.95 0 0 -39.35zm0 -77.72l9.95 0 0 39.35 -9.95 0 0 -39.35zm0 -77.72l9.95 0 0 39.33 -9.95 0 0 -39.33zm0 -77.72l9.95 0 0 39.33 -9.95 0 0 -39.33zm0 -77.74l9.95 0 0 39.37 -9.95 0 0 -39.37zm0 -77.72l9.95 0 0 39.35 -9.95 0 0 -39.35zm0 -77.71l9.95 0 0 39.34 -9.95 0 0 -39.34zm0 -77.73l9.95 0 0 39.35 -9.95 0 0 -39.35zm0 -77.72l9.95 0 0 39.35 -9.95 0 0 -39.35zm0 -77.72l9.95 0 0 39.35 -9.95 0 0 -39.35zm-50.74 -98.51l-1626.86 0 0 51.8 -90.57 0 0 492.82 -1104.92 -577.93 16.95 -40.93 -44.24 -18.51 -28.42 68.59 -1158.63 940.08 -10 0c-1.11,0 -2,0.92 -2,2.03l0 23.07c0,1.09 0.89,2 2,2l768.21 0 -68.79 166.1 52.03 -0.29 68.67 -165.81 1509.14 0 0 146.31 1807.99 0 0 -1037.53 -90.56 0 0 -51.8z"/>
   <path class="fil1 str0" d="M25044.25 3194.85l-556 -293.58c0,0 -19.71,-11.14 -43.49,-19.2l0 -61.06c23.78,8.85 43.49,21.13 43.49,21.13l556 323.03 0 29.68zm0 58.91l-556 -205.68c0,0 -19.71,-7.82 -43.49,-13.47l0 -61.16c23.78,6.59 43.49,15.7 43.49,15.7l556 239.62 0 24.99zm0 58.99l-556 -112.17c0,0 -19.71,-4.27 -43.49,-7.35l0 -63.36c23.78,4.19 43.49,9.99 43.49,9.99l556 152.6 0 20.29zm-625.49 -437.43c-5.22,-0.84 -10.32,-1.36 -15.24,-1.36l-115.48 0c0,0 -5.62,0.09 -13.72,1.36l0 -61.74c8.1,-1.4 13.72,-1.5 13.72,-1.5l115.48 0c4.92,0 10.02,0.57 15.24,1.52l0 61.72zm0 154.57c-5.22,-0.59 -10.32,-0.95 -15.24,-0.95l-115.48 0c0,0 -5.62,0.06 -13.72,0.95l0 -61.96c8.1,-1.04 13.72,-1.1 13.72,-1.1l115.48 0c4.92,0 10.02,0.43 15.24,1.12l0 61.94zm0 160.77c-5.22,-0.33 -10.32,-0.53 -15.24,-0.53l-115.48 0c0,0 -5.62,0.05 -13.72,0.53l0 -64.29c8.1,-0.68 13.72,-0.71 13.72,-0.71l115.48 0c4.92,0 10.02,0.26 15.24,0.71l0 64.29zm-170.5 -307.88c-5.41,2.33 -10.89,5.12 -16.04,8.87l-229 150.88 0 -44.95 229 -166.04c5.15,-4.1 10.63,-7.2 16.04,-9.76l0 61zm0 152.34c-5.41,1.62 -10.89,3.59 -16.04,6.19l-229 105.71 0 -42.59 229 -123.18c5.15,-3.04 10.63,-5.32 16.04,-7.23l0 61.1zm0 158.37c-5.41,0.88 -10.89,1.95 -16.04,3.37l-229 57.67 0 -41.23 229 -78.43c5.15,-1.95 10.63,-3.4 16.04,-4.61l0 63.23zm-433.75 -150.98l-229 -150.86c-5.16,-3.75 -10.64,-6.54 -16.04,-8.87l0 -61c5.4,2.56 10.88,5.66 16.04,9.76l229 166.04 0 44.93zm0 104.51l-229 -105.71c-5.16,-2.6 -10.64,-4.57 -16.04,-6.21l0 -61.08c5.4,1.88 10.88,4.19 16.04,7.23l229 123.18 0 42.59zm0 107.51l-229 -57.67c-5.16,-1.42 -10.64,-2.49 -16.04,-3.37l0 -63.23c5.4,1.21 10.88,2.66 16.04,4.61l229 78.43 0 41.23zm-271.1 -379.21c-8.11,-1.27 -13.73,-1.36 -13.73,-1.36l-115.47 0c-4.92,0 -10.09,0.52 -15.25,1.36l0 -61.72c5.16,-0.95 10.33,-1.52 15.25,-1.52l115.47 0c0,0 5.62,0.1 13.73,1.5l0 61.74zm0 154.57c-8.11,-0.89 -13.73,-0.95 -13.73,-0.95l-115.47 0c-4.92,0 -10.09,0.36 -15.25,0.95l0 -61.94c5.16,-0.69 10.33,-1.12 15.25,-1.12l115.47 0c0,0 5.62,0.06 13.73,1.1l0 61.96zm0 160.77c-8.11,-0.48 -13.73,-0.53 -13.73,-0.53l-115.47 0c-4.92,0 -10.09,0.2 -15.25,0.53l0 -64.29c5.16,-0.45 10.33,-0.71 15.25,-0.71l115.47 0c0,0 5.62,0.03 13.73,0.71l0 64.29zm-170.48 -308.59c-23.75,8.06 -43.46,19.2 -43.46,19.2l-295.36 155.98 0 -43.49 295.36 -171.62c0,0 19.71,-12.28 43.46,-21.13l0 61.06zm0 152.56c-23.75,5.63 -43.46,13.45 -43.46,13.45l-295.36 109.27 0 -40.88 295.36 -127.32c0,0 19.71,-9.11 43.46,-15.7l0 61.18zm0 158.6c-23.75,3.08 -43.46,7.35 -43.46,7.35l-295.36 59.6 0 -39.25 295.36 -81.07c0,0 19.71,-5.8 43.46,-9.99l0 63.36zm1676.11 -120.75l-593.56 -505.02c0,0 -158.77,-157.28 -546.63,-157.28 -387.84,0 -546.61,157.28 -546.61,157.28l-328.13 279.19 0 -441.98 -445.27 0 0 976.56 171.63 0 0 66.81c0,5.1 8.87,5.1 8.87,5.1l1031.71 0 0 -131.85c33.7,-9.31 39.46,-15.85 39.46,-15.85l0 -319.63 136.64 0 0 303.28 0.06 0 0 16.35c0,0 5.77,6.54 39.47,15.85l0 131.85 1031.71 0c0,0 8.86,0 8.86,-5.1l0 -152.02 0 0.02 0 -123.32 0 0.02 0 -83.96c0,0 2.38,-7.59 -8.21,-16.3z"/>
   <path class="fil2 str1" d="M10656.37 3225.65l44.66 0 0 84.9c-14.88,-0.44 -29.78,-0.85 -44.66,-1.29l0 -83.61zm1740.16 217.41l0 0.97 -11978.53 0c5.94,-37.33 53.56,-67.07 112.9,-70.2l10.62 -0.53c185.48,-9.53 370.98,-17.97 556.48,-25.89l0 -686.16 -4.3 -25.1 0 -119.85c0,0 -16.8,-4.28 -16.8,-18.54 0,-13.04 127.77,-53.73 150.34,-60.84l0.78 -66.04c0.02,-1.42 1.22,-2.58 2.65,-2.58 1.39,0.04 2.51,1.19 2.53,2.58l0.8 66.04c22.57,7.11 150.34,47.8 150.34,60.84 0,14.26 -16.8,18.54 -16.8,18.54l0 119.85 -4.33 25.1 0 98.59 25.84 -6.72 150.25 -57.63 1.2 -45.52c0,-0.55 0.42,-0.95 0.99,-0.95 0.55,0 0.96,0.42 0.96,0.95l1.24 45.85 30.93 8.68 88.27 -44.13 123.14 -30.26 123.15 30.26 88.25 44.13 30.95 -8.68 1.21 -45.85c0.02,-0.53 0.44,-0.95 0.97,-0.95 0.55,0 1.01,0.4 1.01,0.95l1.22 45.52 150.25 57.63 25.81 6.72 0 -98.59 -4.32 -25.1 0 -119.85c0,0 -16.77,-4.28 -16.77,-18.54 0,-13.04 127.72,-53.73 150.31,-60.84l0.78 -66.04c0.04,-1.39 1.16,-2.54 2.59,-2.58 1.39,0 2.57,1.16 2.59,2.58l0.8 66.04c22.59,7.11 150.33,47.8 150.33,60.84 0,14.26 -16.77,18.54 -16.77,18.54l0 119.85 -4.32 25.1 0 348.34 18.24 0 0 -7.02c0.24,-1.44 2.18,-9.68 21.86,-10.13l0 -56.97c0,-1.12 0.82,-2.12 1.81,-2.12l8.24 0c-0.72,-5.28 -1.79,-16.08 0.72,-20.02 0.46,-0.72 -0.72,-3.72 -1.46,-5.42 -1.35,-3.43 -2.78,-6.92 -1.56,-9.93 0.67,-1.67 2,-2.88 3.94,-3.5 7.52,-2.47 10.79,-8 10.01,-16.86 -0.76,-8.3 -2.73,-9.72 -5.54,-11.71l-0.76 -0.55c-2.61,-1.95 -5.71,-7.28 -4.76,-11.58 0.51,-2.29 2.27,-5.11 7.79,-5.38 6.62,-0.25 8.66,3.39 10.04,5.84 1.05,1.91 1.28,2.42 3.2,1.91 6.32,-1.74 17.2,-11.67 21.28,-18.32 3.18,-5.12 8.26,-5.63 11.19,-3.19 2.09,1.78 2.53,4.74 1.04,7.27 -0.51,0.86 -0.95,2.05 -1.48,3.43 -1.85,5.05 -4.63,12.74 -16.61,17.61 -5.33,2.13 -5.79,3.51 -5.79,3.55 0.17,0.62 2.15,1.95 3.1,2.63 1.3,0.91 2.36,1.67 3.06,2.64 0.39,0.49 0.86,1.15 1.49,1.97 4.47,5.76 8.79,11.86 7.92,17.04 -0.34,2.27 -1.35,5.09 -2.4,8 -1.67,4.81 -3.62,10.26 -3.2,14.26 0.27,2.98 0.99,6.32 1.68,9.5 0.8,3.62 1.56,7.38 1.82,10.81l13.55 0c1.03,0 1.82,1 1.82,2.12l0 56.97c19.67,0.45 21.65,8.69 21.78,9.64l0.06 7.51 4.51 0c0.98,0 1.79,0.99 1.79,2.12l0 13.48 203.81 0 0 -160.7c-0.42,-2.37 -2.04,-7.2 -7.65,-7.2 -2.02,0 -3.47,0.6 -4.51,1.85 -2.1,2.49 -2.04,7.41 -2.04,10.32l0.02 0.79c0.8,0.85 1.66,2.2 1.66,4.3 0,4.93 0.61,8.82 1.1,9.27 0.92,0.29 1.54,1.18 1.41,2.09 -0.13,0.79 -0.78,1.62 -2.36,1.62l-6.89 0c-2,0 -2.31,-1.25 -2.34,-1.62 -0.15,-0.91 0.44,-1.8 1.39,-2.09 0.51,-0.45 1.14,-4.53 1.14,-9.27 0,-2.14 0.86,-3.5 1.67,-4.36l-0.03 -0.7c-0.06,-3.49 -0.1,-9.45 2.93,-13.04 1.69,-1.96 3.94,-2.97 6.85,-2.97 4.97,0 7.86,2.88 9.46,6.1 1.58,-3.22 4.52,-6.1 9.53,-6.1 2.82,0 5.1,1.01 6.76,2.97 3.08,3.59 3,9.55 2.95,13.04l0 0.7c0.81,0.86 1.65,2.22 1.65,4.36 0,4.74 0.6,8.82 1.14,9.27 0.97,0.29 1.54,1.18 1.41,2.09 -0.06,0.37 -0.36,1.62 -2.39,1.62l-6.89 0c-1.55,0 -2.25,-0.83 -2.3,-1.62 -0.16,-0.91 0.4,-1.8 1.35,-2.09 0.51,-0.45 1.13,-4.34 1.13,-9.27 0,-2.1 0.87,-3.45 1.66,-4.3l0 -0.79c0.04,-2.91 0.08,-7.83 -2.01,-10.32 -1.03,-1.25 -2.48,-1.85 -4.46,-1.85 -5.69,0 -7.31,4.83 -7.71,7.22l0 160.68 99.08 0 0 -2.12c0,-1.18 0.78,-2.13 1.81,-2.13l17.62 0c0.31,0 0.54,0.09 0.82,0.25 0.25,-0.16 0.53,-0.25 0.82,-0.25l17.61 0c1,0 1.81,0.95 1.81,2.13l0 2.12 306.53 0 0 -13.48c0,-1.13 0.82,-2.12 1.81,-2.12l4.46 0 0 -7.02c0.19,-1.44 2.24,-9.61 21.81,-10.13l0 -127.95c-0.43,-2.37 -2.02,-7.2 -7.64,-7.2 -2,0 -3.48,0.6 -4.51,1.85 -2.09,2.49 -2.06,7.41 -2.03,10.32l0.03 0.79c0.84,0.85 1.66,2.2 1.66,4.3 0,4.93 0.61,8.82 1.12,9.27 0.92,0.29 1.49,1.18 1.35,2.09 -0.07,0.79 -0.74,1.62 -2.32,1.62l-6.87 0c-2.03,0 -2.34,-1.25 -2.36,-1.62 -0.15,-0.91 0.44,-1.8 1.3,-2.09 0.6,-0.45 1.2,-4.53 1.2,-9.27 0,-2.14 0.89,-3.5 1.67,-4.36l0 -0.7c-0.08,-3.49 -0.11,-9.45 2.95,-13.04 1.67,-1.96 3.94,-2.97 6.81,-2.97 4.97,0 7.9,2.88 9.48,6.1 1.58,-3.22 4.53,-6.1 9.46,-6.1 2.88,0 5.16,1.01 6.81,2.97 3.05,3.59 3.03,9.55 2.99,13.04l0 0.7c0.76,0.86 1.63,2.22 1.63,4.36 0,4.74 0.6,8.82 1.15,9.27 0.95,0.29 1.52,1.18 1.35,2.09 -0.02,0.37 -0.36,1.62 -2.34,1.62l-6.91 0c-1.54,0 -2.23,-0.83 -2.28,-1.62 -0.17,-0.91 0.4,-1.8 1.31,-2.09 0.55,-0.45 1.16,-4.34 1.16,-9.27 0,-2.1 0.84,-3.45 1.62,-4.3l0.04 -0.79c0.06,-2.91 0.06,-7.83 -2,-10.32 -1.08,-1.25 -2.51,-1.85 -4.53,-1.85 -5.62,0 -7.25,4.83 -7.65,7.22l0 127.93c19.6,0.52 21.62,8.69 21.77,9.64l0.04 7.51 4.49 0c1.01,0 1.81,0.99 1.81,2.12l0 13.48 306.52 0 0 -2.12c0,-1.18 0.82,-2.13 1.81,-2.13l35.24 0c0.95,0 1.81,0.95 1.81,2.13l0 2.12 306.54 0 0 -13.48c0,-1.13 0.76,-2.12 1.76,-2.12l4.49 0 0 -7.02c0.19,-1.44 2.24,-9.61 21.84,-10.13l0 -127.93c-0.44,-2.39 -2.05,-7.22 -7.67,-7.22 -2.02,0 -3.46,0.6 -4.51,1.85 -2.09,2.49 -2.06,7.41 -2.03,10.32l0.03 0.79c0.81,0.85 1.64,2.2 1.64,4.3 0,4.93 0.63,8.82 1.16,9.27 0.88,0.29 1.47,1.18 1.31,2.09 -0.05,0.79 -0.74,1.62 -2.3,1.62l-6.9 0c-2,0 -2.29,-1.25 -2.33,-1.62 -0.17,-0.91 0.41,-1.8 1.36,-2.09 0.53,-0.45 1.16,-4.53 1.16,-9.27 0,-2.14 0.87,-3.5 1.6,-4.36l0 -0.7c-0.01,-3.49 -0.03,-9.45 2.98,-13.04 1.67,-1.96 3.94,-2.97 6.83,-2.97 4.95,0 7.9,2.88 9.48,6.1 1.58,-3.22 4.49,-6.1 9.48,-6.1 2.85,0 5.13,1.01 6.78,2.97 3.06,3.59 3,9.55 2.95,13.04l0 0.7c0.81,0.86 1.67,2.22 1.67,4.36 0,4.74 0.61,8.82 1.2,9.27 0.89,0.29 1.46,1.18 1.33,2.09 -0.03,0.37 -0.36,1.62 -2.36,1.62l-6.91 0c-1.54,0 -2.24,-0.83 -2.3,-1.62 -0.12,-0.91 0.44,-1.8 1.35,-2.09 0.53,-0.45 1.12,-4.34 1.12,-9.27 0,-2.1 0.84,-3.45 1.66,-4.3l0.02 -0.79c0.05,-2.91 0.06,-7.83 -2.02,-10.32 -1.03,-1.25 -2.5,-1.85 -4.49,-1.85 -5.62,0 -7.23,4.83 -7.67,7.2l0 127.95c19.56,0.52 21.62,8.69 21.76,9.64l0.03 7.51 4.51 0c0.97,0 1.79,0.99 1.79,2.12l0 13.48 306.52 0 0 -2.12c0,-1.18 0.8,-2.13 1.81,-2.13l17.62 0c0.31,0 0.59,0.09 0.84,0.25 0.25,-0.16 0.49,-0.25 0.8,-0.25l17.62 0c0.99,0 1.81,0.95 1.81,2.13l0 2.12 99.4 0 0 -160.68c-0.49,-2.39 -2.03,-7.22 -7.68,-7.22 -2,0 -3.45,0.6 -4.48,1.85 -2.1,2.49 -2.04,7.41 -2.02,10.32l0 0.79c0.79,0.85 1.62,2.2 1.62,4.3 0,4.93 0.61,8.82 1.16,9.27 0.95,0.29 1.5,1.18 1.37,2.09 -0.11,0.79 -0.74,1.62 -2.32,1.62l-6.94 0c-1.95,0 -2.29,-1.25 -2.33,-1.62 -0.11,-0.91 0.44,-1.8 1.41,-2.09 0.51,-0.45 1.1,-4.53 1.1,-9.27 0,-2.14 0.88,-3.5 1.66,-4.36l0 -0.7c-0.04,-3.49 -0.08,-9.45 3,-13.04 1.6,-1.96 3.91,-2.97 6.77,-2.97 4.98,0 7.89,2.88 9.47,6.1 1.58,-3.22 4.51,-6.1 9.48,-6.1 2.86,0 5.18,1.01 6.83,2.97 3.08,3.59 2.97,9.55 2.93,13.04l0 0.7c0.8,0.86 1.67,2.22 1.67,4.36 0,4.74 0.63,8.82 1.15,9.27 0.95,0.29 1.5,1.18 1.39,2.09 -0.04,0.37 -0.34,1.62 -2.38,1.62l-6.91 0c-1.53,0 -2.2,-0.83 -2.32,-1.62 -0.08,-0.91 0.47,-1.8 1.39,-2.09 0.55,-0.45 1.14,-4.34 1.14,-9.27 0,-2.1 0.84,-3.45 1.62,-4.3l0 -0.79c0.05,-2.91 0.08,-7.83 -2.02,-10.32 -0.99,-1.25 -2.49,-1.85 -4.49,-1.85 -5.58,0 -7.21,4.83 -7.67,7.2l0 160.7 203.52 0 0 -13.48c0,-1.13 0.8,-2.12 1.79,-2.12l4.51 0 0 -7.02c0.19,-1.44 2.17,-9.68 21.83,-10.13l0 -56.97c0,-1.12 0.8,-2.12 1.81,-2.12l3.52 0c-1.98,-5.01 -5.12,-14.64 -2.53,-20.15 0.7,-1.54 -0.14,-3.32 -1.77,-6.09 -1.35,-2.54 -2.82,-5.12 -2.11,-7.98 0.45,-1.87 1.71,-3.37 3.92,-4.55 2.79,-1.51 5.31,-2.4 7.63,-3.2 4.85,-1.8 8.34,-3.08 11.32,-8.72 1.89,-3.67 2.24,-9.53 2.59,-15.73 0.51,-8.36 0.97,-17.04 5.58,-21.98 7.15,-7.72 9.85,-17.08 8.28,-21.34 -1.54,-4.08 -0.76,-9.25 0,-14.25 0.38,-2.86 0.83,-5.52 0.72,-7.74 -0.16,-5.79 0.53,-8.67 2.39,-9.66 0.88,-0.53 2.33,-0.76 4.25,1.25 1.41,1.42 2.3,4.61 3.35,8.3 0.8,2.75 2.23,7.85 3.31,8.28 0.78,0.36 1.67,0.44 2.53,0.52 2.09,0.19 5.58,0.55 5.58,6.44 0,1.73 -0.25,3.47 -0.52,5.16 -0.62,4.24 -1.15,8.33 1.83,12.98 1.24,2.02 2.83,4.07 4.38,6.12 4.62,6.12 9.02,11.92 6.54,16.71 -1.71,3.32 -4.7,3.43 -6.62,3.49 -2.28,0.11 -2.28,0.3 -2.41,1.06 -0.19,1.54 -0.06,4.02 0.13,6.62 0.32,5.87 0.76,13.2 -1.95,18.35 -1.02,1.93 -2.03,3.54 -2.95,5.05 -2.46,3.9 -4.05,6.49 -3.78,11.55 0.29,5.23 4.53,10.83 7.31,14.51 1.05,1.37 1.86,2.45 2.34,3.34 1.52,2.76 1.79,8.11 1.65,11.66l2.04 0c0.97,0 1.81,1 1.81,2.12l0 56.97c19.66,0.45 21.58,8.69 21.77,9.64l0.04 7.51 21.07 0c0.99,0 1.82,0.99 1.82,2.12l0 217.1 291.4 0 0 -37.3 160.64 0 0 -820.6 106.06 -29.43 0 -17.26 12.09 0 0 13.89 50.15 -13.89 73.8 0 0 -34.32 4.53 -4.5 10.98 0 4.53 4.5 0 34.32 73.78 0 50.14 13.89 0 -13.89 12.1 0 0 17.26 106.1 29.43 0 126.68 370.66 0 0 -33.64 2 -5.04 11.82 0 2.05 5.04 0 33.64 222.52 0 0 -29.01 2 -4.36 3.61 0 0.28 -30.54 0.03 -46.46c-0.03,-0.08 -0.03,-0.1 -0.14,-0.2 -3.9,-3.99 -8.68,-9.04 -13.22,-17.56 -7.07,-13.44 -7.07,-14.64 -4.86,-26.31 1.18,-6.29 3.07,-15.83 4.64,-32.98 4.27,-47.17 13.44,-80.09 13.55,-80.41 0.09,-0.32 0.27,-0.59 0.41,-0.83l0 -3.02c0.06,-2.98 0,-6.03 -1,-9.04 -0.56,-1.63 0.14,-3.49 1.6,-4.15 1.41,-0.68 3.03,0.15 3.56,1.8 0.33,0.8 0.27,1.65 0,2.35 -0.97,3.01 -1.12,6.06 -1.02,9.04l0 9.03 0.05 18.05 0.11 36.14 0.16 72.25 0 24.51c5.12,5.4 8.96,10.48 8.96,22 0,17.19 -6.43,27.91 -8.74,31.24l0.22 25.09 3.6 0 2.05 4.36 0 29.01 222.48 0 0 -33.64 2.01 -5.04 11.85 0 2.01 5.04 0 33.64 370.64 0 0 -126.68 106.13 -29.43 0 -17.26 12.07 0 0 13.89 50.17 -13.89 73.76 0 0 -34.32 4.57 -4.5 10.89 0 4.59 4.5 0 34.32 73.8 0 50.17 13.89 0 -13.89 12.08 0 0 17.26 106.05 29.43 0 820.6 153.81 0 0 65.14c63.81,0.44 127.64,0.79 191.44,1.37 6.96,0.07 13.97,0.13 20.99,0.22l0 -287.22 -5.5 0 0 -15.18 -9.61 0 0 -8.77 46.02 -34.27 0 -51.59 4.54 0 0 -72.24 -2.43 0 0 -8.65 -8.26 0 0 -5.4 34.89 -27.22 7.89 0 0 -76.79 -7.44 0 0 -4.11 -7.4 0 0 -4.14 22.17 -20.63c0,0 27.52,-222.5 205.06,-409.05l0 -9.93 3.28 0 0 -8.23c0,0 0.17,-6.02 -3.18,-7.35 -3.39,-1.33 -6.09,-5.78 -6.09,-9.5l0 -5.79 -9.23 0 0 -22.19 17.05 0 0 -58.74 -0.97 -2.23 0 -6.49 -1.62 0 0 -8.45 2.59 0 0 -55.87 -0.97 -2.2 0 -4.76 -6.64 0 -1.79 -5.23 17.97 -14.42c0,0 28.49,-39.53 28.49,-64.27l0 -20.64 -3.41 0 0.27 -14.25 10.26 0 0 -72.23 -2.69 0 0 -7.44 -7.84 0c0,0 -2.63,0.39 -2.63,-1.95l0 -10.73c0,0 -0.11,-3 2.52,-3l15.77 0 0 -74.5c0,0 -4,-0.24 -4,-2.29l0 -9.61 3.62 0 0 -40.92c0,0 -3.62,0.28 -3.62,-2.71l0 -1.86 5.35 0 1.45 -34.66 -10.62 0 0 -4.97 10.89 0 2.64 -62.5 -10.47 0 0 -4.93 10.68 0 2.7 -63.41 -9 0 0 -4.95 9.23 0 3.22 -74.73 -8.47 0 0 -4.96 8.69 0 1.68 -39.19 -1.46 0c0,0 -1.83,0.3 -1.45,-2.02l2.91 -55.58 -2.11 0c0,0 -0.8,0 -0.76,-1.1l0 -1.38 1.57 0 2.44 -35.92 3.77 -57.37c0,0 0.28,-2.1 2.04,-2.83l0.55 -37.23 -1.41 -4.66 -7.44 1.77 5.22 -5.61 -5.22 -5.6 7.44 1.76 2.21 -7.32 2.22 7.32 7.39 -1.76 -5.19 5.6 5.19 5.61 -7.39 -1.77 -1.42 4.71 0.55 37.18c1.73,0.73 2.01,2.83 2.01,2.83l3.81 57.37 2.44 35.92 1.56 0 0 1.38c0.04,1.1 -0.76,1.1 -0.76,1.1l-2.15 0 2.95 55.58c0.34,2.32 -1.49,2.02 -1.49,2.02l-1.46 0 1.67 39.19 8.67 0 0 4.96 -8.47 0 3.3 74.73 9.23 0 0 4.95 -9.07 0 2.7 63.41 10.69 0 0 4.93 -10.47 0 2.69 62.5 10.85 0 0 4.97 -10.62 0 1.5 34.66 5.35 0 0 1.86c0,2.99 -3.62,2.71 -3.62,2.71l0 40.92 3.62 0 0 9.61c0,2.05 -4.05,2.29 -4.05,2.29l0 74.5 15.74 0c2.66,0 2.55,3 2.55,3l0 10.73c0,2.34 -2.69,1.95 -2.69,1.95l-7.78 0 0 7.44 -2.66 0 0 72.23 10.26 0 0.18 14.25 -3.32 0 0 20.64c0,24.74 28.46,64.27 28.46,64.27l17.95 14.42 -1.77 5.23 -6.6 0 0 4.76 -0.97 2.2 0 55.87 2.54 0 0 8.45 -1.57 0 0 6.49 -0.97 2.23 0 58.74 17.01 0 0 22.19 -9.23 0 0 5.79c0,3.72 -2.66,8.17 -6.05,9.5 -3.46,1.33 -3.18,7.35 -3.18,7.35l0 8.23 3.24 0 0 9.93c177.54,186.55 205.04,409.05 205.04,409.05l22.17 20.63 0 4.14 -7.38 0 0 4.11 -7.39 0 0 76.79 7.81 0 34.9 27.22 0 5.4 -8.19 0 0 8.65 -2.48 0 0 72.24 4.54 0 0 51.59 46 34.27 0 8.77 -9.59 0 0 15.18 -5.46 0 0 295.13c1.84,0.03 3.74,0.05 5.61,0.06l232.93 3.29 0 -140.21 -10.94 0 0 -12.09 10.69 0 0 -29.4 4.53 -11.41 0 -269.29c0,0 -7.73,-6.24 -7.73,-17.51 0,-11.26 4.91,-12 4.91,-24.49 0,-12.5 4.86,-5.89 4.86,-13.96l0 -26.95 -14.62 0 0 -8.09 -17.85 0 0 -12 26.15 0c0,0 -0.38,-11.28 5.51,-11.28l0 -12.73 3.24 0 0 -50.69c0,0 -6.75,-2.17 -6.75,-11.14l0 -4.79 2.53 0 0 -7.09 4.77 0 0 -5.53 4.68 0c0,0 2.16,0.75 2.16,-5.01 0,-5.76 0.6,-12.49 -2.54,-16.17 -3.19,-3.69 -3.23,-3.41 -3.23,-7.96 0,-4.54 -3.67,-2.8 -3.67,-9.06 0,-6.25 11.07,-5.87 11.07,-13.34 0,-7.48 -2.66,-4.81 -2.66,-10.29 0,-5.53 2.28,-7.86 5.35,-7.86 3.02,0 5.27,2.33 5.27,7.86 0,5.48 -2.63,2.81 -2.63,10.29 0,7.47 11.06,7.09 11.06,13.34 0,6.26 -3.67,4.52 -3.67,9.06 0,4.55 -0.06,4.27 -3.24,7.96 -3.12,3.68 -2.53,10.41 -2.53,16.17 0,5.76 2.15,5.01 2.15,5.01l4.64 0 0 5.53 4.8 0 0 7.09 110.65 0 0 -7.09 4.74 0 0 -5.53 4.7 0c0,0 2.11,0.75 2.11,-5.01 0,-5.76 0.63,-12.49 -2.55,-16.17 -3.12,-3.69 -3.19,-3.41 -3.19,-7.96 0,-4.54 -3.66,-2.8 -3.66,-9.06 0,-6.25 11.07,-5.87 11.07,-13.34 0,-7.48 -2.64,-4.81 -2.64,-10.29 0,-5.53 2.26,-7.86 5.27,-7.86 3.08,0 5.35,2.33 5.35,7.86 0,5.48 -2.65,2.81 -2.65,10.29 0,7.47 11.05,7.09 11.05,13.34 0,6.26 -3.66,4.52 -3.66,9.06 0,4.55 -0.05,4.27 -3.22,7.96 -3.14,3.68 -2.55,10.41 -2.55,16.17 0,5.76 2.17,5.01 2.17,5.01l4.68 0 0 5.53 4.76 0 0 7.09 91.36 0 0 -7.09 4.81 0 0 -5.53 4.64 0c0,0 2.16,0.75 2.16,-5.01 0,-5.76 0.6,-12.49 -2.54,-16.17 -3.18,-3.69 -3.23,-3.41 -3.23,-7.96 0,-4.54 -3.66,-2.8 -3.66,-9.06 0,-6.25 11.04,-5.87 11.04,-13.34 0,-7.48 -2.64,-4.81 -2.64,-10.29 0,-5.53 2.32,-7.86 5.33,-7.86 3.04,0 5.3,2.33 5.3,7.86 0,5.48 -2.6,2.81 -2.6,10.29 0,7.47 11.07,7.09 11.07,13.34 0,6.26 -3.71,4.52 -3.71,9.06 0,4.55 -0.07,4.27 -3.19,7.96 -3.13,3.68 -2.54,10.41 -2.54,16.17 0,5.76 2.11,5.01 2.11,5.01l4.69 0 0 5.53 4.75 0 0 7.09 110.65 0 0 -7.09 4.78 0 0 -5.53 4.66 0c0,0 2.14,0.75 2.14,-5.01 0,-5.76 0.59,-12.49 -2.52,-16.17 -3.14,-3.69 -3.25,-3.41 -3.25,-7.96 0,-4.54 -3.67,-2.8 -3.67,-9.06 0,-6.25 11.07,-5.87 11.07,-13.34 0,-7.48 -2.66,-4.81 -2.66,-10.29 0,-5.53 2.28,-7.86 5.36,-7.86 3.01,0 5.28,2.33 5.28,7.86 0,5.48 -2.65,2.81 -2.65,10.29 0,7.47 11.12,7.09 11.12,13.34 0,6.26 -3.66,4.52 -3.66,9.06 0,4.55 -0.13,4.27 -3.25,7.96 -3.14,3.68 -2.53,10.41 -2.53,16.17 0,5.76 2.09,5.01 2.09,5.01l4.66 0 0 5.53 4.78 0 0 7.09 4.11 0 0 -36.98 1.94 0c-0.11,-2.33 -0.11,-7.98 1.83,-11.45 2.42,-4.49 -2.48,-7.24 -3.32,-10 -0.94,-2.77 -1.48,-12.53 -3.21,-18.27 -1.71,-5.75 -2.31,-11.47 1.58,-13.59 3.88,-2.12 5.12,-1.27 6.68,-6.18 1.63,-4.89 1.9,-9.5 5.45,-11.26 3.51,-1.74 -1.72,-6.21 -1.62,-9.55 0.11,-3.36 1.9,-4.96 4.75,-5.25 2.9,-0.34 4.48,3.17 3.34,7.15 -1.24,4 4.05,6.21 5.95,4.81 1.84,-1.46 2.63,-10.1 2.63,-12 0,-1.88 0.38,-12.88 2.76,-13.02 2.37,-0.18 0.64,22 0.64,22 0,0 0.27,12.57 -1.84,16.23 -2.11,3.64 -2.91,13.85 -1.83,17.66 1.03,3.85 -0.28,10.71 0.27,16.6 0.49,5.91 2.49,7.17 2.22,13.21 -0.22,5.37 -0.06,9.82 0,12.91l2.1 0 0 9.97 117.71 0 0 -9.97 3.88 0c0,0 -0.59,-11.45 0.8,-16.2 1.47,-4.69 -1.87,-12.42 -2.05,-18.39 -0.2,-6 -1.82,-9.74 0,-13.22 1.84,-3.49 -1.24,-25.86 6,-28.36 7.18,-2.48 3.24,-9.04 6.96,-11.28 3.71,-2.23 8.35,-2.06 6.31,8.4 -2.01,10.46 2.32,11.58 4.15,15.12 1.9,3.55 5.45,11.19 8.37,17.37 2.97,6.16 2.48,7.84 0,11.97 -2.43,4.09 -2.6,8.57 -4.33,14.54 -1.66,5.97 -4.32,11.2 -4.04,14.59 0.34,3.34 0,5.46 0,5.46l4.26 0 0 9.97 0.33 0c0,0 11.6,14.52 26,14.52l55.2 0c14.39,0 25.94,-14.52 25.94,-14.52l0.31 0 0 -9.97 4.59 0c0,0 -4.43,-16.89 -4,-21.21 0.38,-4.36 -5.22,-14.97 -3.81,-21.73 1.38,-6.77 -2.6,-13.01 1.24,-17.14 3.77,-4.09 8.72,-10.84 9.76,-14.97 1.03,-4.09 -5.19,-10.59 0,-13.72 5.23,-3.16 7.61,-6.29 7.99,0 0.41,6.25 -0.22,8.45 2,10.12 2.19,1.69 7.22,2.42 6.99,12.06 -0.15,9.66 2.45,15.44 1.83,24.39 -0.62,8.9 0.17,14.94 -1.45,22.89 -1.56,7.96 1.2,16.66 1.51,19.31l3.73 0 0 9.97 117.65 0 0 -9.97 4.33 0c0,0 -4.81,-10.97 -3.08,-18.27 1.73,-7.33 -0.76,-16.09 -1.57,-20.24 -0.75,-4.13 -2.92,-20.73 0,-29.03 2.92,-8.25 8.14,-8.25 8.14,-14.58 0,-6.35 -0.16,-9.49 4.64,-9.49 4.86,0 2.54,4.39 3.67,10.7 1.19,6.35 5.66,4.87 6.63,17.08 0.97,12.15 5.84,11.41 8.91,19.24 3.13,7.8 1.73,8.98 0.97,14.61 -0.76,5.61 -5.45,26.34 -5.25,29.98l2.98 0 0 36.98 4.11 0 0 -7.09 4.74 0 0 -5.53 4.64 0c0,0 2.17,0.75 2.17,-5.01 0,-5.76 0.59,-12.49 -2.56,-16.17 -3.12,-3.69 -3.22,-3.41 -3.22,-7.96 0,-4.54 -3.66,-2.8 -3.66,-9.06 0,-6.25 11.1,-5.87 11.1,-13.34 0,-7.48 -2.63,-4.81 -2.63,-10.29 0,-5.53 2.25,-7.86 5.27,-7.86 3.07,0 5.34,2.33 5.34,7.86 0,5.48 -2.65,2.81 -2.65,10.29 0,7.47 11.06,7.09 11.06,13.34 0,6.26 -3.66,4.52 -3.66,9.06 0,4.55 -0.1,4.27 -3.23,7.96 -3.14,3.68 -2.55,10.41 -2.55,16.17 0,5.76 2.17,5.01 2.17,5.01l4.64 0 0 5.53 4.8 0 0 7.09 110.64 0 0 -7.09 4.74 0 0 -5.53 4.7 0c0,0 2.1,0.75 2.1,-5.01 0,-5.76 0.59,-12.49 -2.53,-16.17 -3.14,-3.69 -3.18,-3.41 -3.18,-7.96 0,-4.54 -3.72,-2.8 -3.72,-9.06 0,-6.25 11.05,-5.87 11.05,-13.34 0,-7.48 -2.58,-4.81 -2.58,-10.29 0,-5.53 2.25,-7.86 5.28,-7.86 3.02,0 5.33,2.33 5.33,7.86 0,5.48 -2.63,2.81 -2.63,10.29 0,7.47 11.07,7.09 11.07,13.34 0,6.26 -3.68,4.52 -3.68,9.06 0,4.55 -0.06,4.27 -3.24,7.96 -3.14,3.68 -2.53,10.41 -2.53,16.17 0,5.76 2.15,5.01 2.15,5.01l4.64 0 0 5.53 4.74 0 0 7.09 91.46 0 0 -7.09 4.74 0 0 -5.53 4.69 0c0,0 2.15,0.75 2.15,-5.01 0,-5.76 0.6,-12.49 -2.53,-16.17 -3.18,-3.69 -3.24,-3.41 -3.24,-7.96 0,-4.54 -3.67,-2.8 -3.67,-9.06 0,-6.25 11,-5.87 11,-13.34 0,-7.48 -2.59,-4.81 -2.59,-10.29 0,-5.53 2.28,-7.86 5.35,-7.86 3.02,0 5.29,2.33 5.29,7.86 0,5.48 -2.59,2.81 -2.59,10.29 0,7.47 11,7.09 11,13.34 0,6.26 -3.67,4.52 -3.67,9.06 0,4.55 -0.06,4.27 -3.17,7.96 -3.19,3.68 -2.54,10.41 -2.54,16.17 0,5.76 2.09,5.01 2.09,5.01l4.7 0 0 5.53 4.74 0 0 7.09 110.65 0 0 -7.09 4.81 0 0 -5.53 4.63 0c0,0 2.15,0.75 2.15,-5.01 0,-5.76 0.61,-12.49 -2.53,-16.17 -3.18,-3.69 -3.22,-3.41 -3.22,-7.96 0,-4.54 -3.69,-2.8 -3.69,-9.06 0,-6.25 11.02,-5.87 11.02,-13.34 0,-7.48 -2.59,-4.81 -2.59,-10.29 0,-5.53 2.26,-7.86 5.29,-7.86 3.07,0 5.33,2.33 5.33,7.86 0,5.48 -2.64,2.81 -2.64,10.29 0,7.47 11.04,7.09 11.04,13.34 0,6.26 -3.66,4.52 -3.66,9.06 0,4.55 -0.05,4.27 -3.22,7.96 -3.14,3.68 -2.55,10.41 -2.55,16.17 0,5.76 2.1,5.01 2.1,5.01l4.7 0 0 5.53 4.81 0 0 7.09 2.52 0 0 4.79c0,8.97 -6.74,11.14 -6.74,11.14l0 50.69 3.25 0 0 12.73c5.87,0 5.44,11.28 5.44,11.28l26.23 0 0 12 -17.87 0 0 8.09 -14.62 0 0 26.95c0,8.07 4.86,1.46 4.86,13.96 0,12.49 4.85,13.23 4.85,24.49 0,11.27 -7.71,17.51 -7.71,17.51l0 269.29 4.59 11.41 0 29.4 10.68 0 0 12.09 -11.01 0 0 167.67c49.2,1.2 98.34,2.43 147.55,3.73l3.34 -0.41 0 -11.32 6.09 -3.8 10.35 -252.45c0,0 -8.45,-1.46 -8.45,-9.45 0,-8.06 8.45,-7.34 8.45,-16.8 0,-9.42 0,-30.68 0,-30.68l-6.79 0 0 -11.58 -14.13 0 0 -17.02 7.77 -3.51 5.18 0 7.97 -9.95 0 -14.88 3.79 0 0 -44.15 -2.38 0 0 -10.64 92.63 0 0 -12.72c0,0 -7.98,-4.03 -7.98,-13.03 0,-8.96 7.98,-6.37 7.98,-14.37 0,-8.07 0,-23.63 0,-23.63 0,0 -7.98,-2.39 -7.98,-10.62 0,-8.28 13.15,-9.01 13.15,-18.21 0,-9.19 0,-149.95 0,-149.95 0,0 -4.96,-3.33 -4.96,-10.39 0,-7.1 6.85,-7.33 6.85,-13.96 0,-6.6 4.22,-5.65 4.22,-14.88 0,-9.23 -4.22,-5.89 -9.61,-5.89 0,0 -7.12,0.22 -7.12,-8.06 0,-8.24 1.45,-9.88 8.96,-9.88 7.53,0 18.11,-4.73 18.11,-12.08 0,-7.32 -4.69,-9.2 -4.69,-16.28 0,-7.11 8.47,-6.83 8.47,-14.67 0,-7.77 -6.58,-10.6 -6.58,-17.95 0,-7.28 9.38,-13.68 22.99,-13.68 13.63,0 31.99,-3.05 31.99,-16.04 0,-13.02 -23.04,-13.02 -23.04,-32.35 0,-19.39 40.95,-32.62 40.95,-50.34 0,-17.68 -11.06,-16.07 -11.06,-32.12 0,-16.07 13.59,-12.96 13.59,-24.58 0,-11.55 1.66,-5.4 1.66,-12.85 0,-7.43 -7.26,-3.98 -7.26,-10.75 0,-6.71 7.26,-4.83 7.26,-12.15 0,0 0.07,-0.93 0.49,-1.8l0 -24.52 -18.12 0 0 -4.55 18.12 0 0 -19.22 4.53 0 0 19.22 18.13 0 0 4.55 -18.13 0 0 24.6c0.44,0.87 0.49,1.72 0.49,1.72 0,7.32 7.28,5.44 7.28,12.15 0,6.77 -7.28,3.32 -7.28,10.75 0,7.45 1.62,1.3 1.62,12.85 0,11.62 13.7,8.51 13.7,24.58 0,16.05 -11.05,14.44 -11.05,32.12 0,17.72 40.84,30.95 40.84,50.34 0,19.33 -22.99,19.33 -22.99,32.35 0,12.99 18.29,16.04 31.92,16.04 13.66,0 23.06,6.4 23.06,13.68 0,7.35 -6.6,10.18 -6.6,17.95 0,7.84 8.47,7.56 8.47,14.67 0,7.08 -4.69,8.96 -4.69,16.28 0,7.35 10.64,12.08 18.14,12.08 7.54,0 8.89,1.64 8.89,9.88 0,8.28 -7.01,8.06 -7.01,8.06 -5.44,0 -9.66,-3.34 -9.66,5.89 0,9.23 4.22,8.28 4.22,14.88 0,6.63 6.85,6.86 6.85,13.96 0,7.06 -4.98,10.39 -4.98,10.39 0,0 0,140.76 0,149.95 0,9.2 13.18,9.93 13.18,18.21 0,8.23 -7.99,10.62 -7.99,10.62 0,0 0,15.56 0,23.63 0,8 7.99,5.41 7.99,14.37 0,9 -7.99,13.03 -7.99,13.03l0 12.72 107.34 0 0 -13.45c0,0 -7.06,-1.88 -7.06,-11.35 0,-9.44 7.06,-7.55 7.06,-18.39l0 -6.19 37.62 0 0 -13.2c0,0 -7.82,-0.93 -7.82,-7.56 0,-6.6 10.02,-8.15 10.02,-17l0 -142.88c0,0 -7.39,-9.89 -7.39,-21.83 0,-11.96 15.7,-2.67 15.7,-10.37 0,-7.73 -16.95,-19.84 -16.95,-30.57 0,-10.71 18.95,-0.95 18.95,-9.27l0 -49.61c0,0 -4.04,-1.58 -4.04,-8.2 0,-6.61 8.47,-5.33 8.47,-15.71 0,-10.4 -4.7,-221.73 189.92,-293.52l0 -21.42 22.55 0 0 -76.19c0,0 -4.05,-5.06 -4.05,-14.51 0,-9.45 5.63,-14.49 5.63,-22.98 0,-8.49 0.31,-17.66 8.19,-17.66 7.82,0 14.4,-2.48 14.4,-5.94 0,-3.5 -8.13,-9.45 -8.13,-19.57 0,-10.04 30.36,-10.67 30.36,-25.48 0,0 -5.12,-2.36 -5.12,-7.86 0,-5.53 6.75,-5.34 6.75,-12.6 0,-7.26 -7.72,-9.92 -7.72,-18.41 0,-8.54 8.62,-7.41 8.62,-15.95l0 -33.51 -19.89 0 0 -5.01 19.89 0 0 -21.13 5.01 0 0 21.13 19.88 0 0 5.01 -19.88 0 0 33.51c0,8.54 8.58,7.41 8.58,15.95 0,8.49 -7.65,11.15 -7.65,18.41 0,7.26 6.8,7.07 6.8,12.6 0,5.5 -5.24,7.86 -5.24,7.86 0,14.81 30.43,15.44 30.43,25.48 0,10.12 -8.15,16.07 -8.15,19.57 0,3.46 6.59,5.94 14.4,5.94 7.82,0 8.17,9.17 8.17,17.66 0,8.49 5.64,13.53 5.64,22.98 0,9.45 -4.09,14.51 -4.09,14.51l0 76.19 22.54 0 0 21.42c194.69,71.79 190,283.12 190,293.52 0,10.38 8.47,9.1 8.47,15.71 0,6.62 -4.09,8.2 -4.09,8.2l0 49.61c0,8.32 18.98,-1.44 18.98,9.27 0,10.73 -16.94,22.84 -16.94,30.57 0,7.7 15.7,-1.59 15.7,10.37 0,11.94 -7.39,21.83 -7.39,21.83l0 142.88c0,8.85 10.03,10.4 10.03,17 0,6.63 -7.82,7.56 -7.82,7.56l0 13.2 37.59 0 0 6.19c0,10.84 7.08,8.95 7.08,18.39 0,9.47 -7.08,11.35 -7.08,11.35l0 13.45 107.37 0 0 -12.72c0,0 -8.06,-4.03 -8.06,-13.03 0,-8.96 8.06,-6.37 8.06,-14.37 0,-8.07 0,-23.63 0,-23.63 0,0 -8.06,-2.39 -8.06,-10.62 0,-8.28 13.18,-9.01 13.18,-18.21 0,-9.19 0,-149.95 0,-149.95 0,0 -4.91,-3.33 -4.91,-10.39 0,-7.1 6.8,-7.33 6.8,-13.96 0,-6.6 4.25,-5.65 4.25,-14.88 0,-9.23 -4.25,-5.89 -9.64,-5.89 0,0 -7.08,0.22 -7.08,-8.06 0,-8.24 1.45,-9.88 8.95,-9.88 7.57,0 18.13,-4.73 18.13,-12.08 0,-7.32 -4.68,-9.2 -4.68,-16.28 0,-7.11 8.41,-6.83 8.41,-14.67 0,-7.77 -6.58,-10.6 -6.58,-17.95 0,-7.28 9.45,-13.68 23.03,-13.68 13.64,0 31.99,-3.05 31.99,-16.04 0,-13.02 -23.03,-13.02 -23.03,-32.35 0,-19.39 40.88,-32.62 40.88,-50.34 0,-17.68 -11.06,-16.07 -11.06,-32.12 0,-16.07 13.65,-12.96 13.65,-24.58 0,-11.55 1.67,-5.4 1.67,-12.85 0,-7.43 -7.28,-3.98 -7.28,-10.75 0,-6.71 7.28,-4.83 7.28,-12.15 0,0 0,-0.93 0.48,-1.8l0 -24.52 -18.12 0 0 -4.55 18.12 0 0 -19.22 4.55 0 0 19.22 18.06 0 0 4.55 -18.06 0 0 24.6c0.43,0.87 0.43,1.72 0.43,1.72 0,7.32 7.33,5.44 7.33,12.15 0,6.77 -7.33,3.32 -7.33,10.75 0,7.45 1.66,1.3 1.66,12.85 0,11.62 13.66,8.51 13.66,24.58 0,16.05 -11.07,14.44 -11.07,32.12 0,17.72 40.9,30.95 40.9,50.34 0,19.33 -23.03,19.33 -23.03,32.35 0,12.99 18.33,16.04 31.98,16.04 13.64,0 23.04,6.4 23.04,13.68 0,7.35 -6.59,10.18 -6.59,17.95 0,7.84 8.47,7.56 8.47,14.67 0,7.08 -4.68,8.96 -4.68,16.28 0,7.35 10.55,12.08 18.12,12.08 7.5,0 8.89,1.64 8.89,9.88 0,8.28 -7.02,8.06 -7.02,8.06 -5.43,0 -9.69,-3.34 -9.69,5.89 0,9.23 4.26,8.28 4.26,14.88 0,6.63 6.78,6.86 6.78,13.96 0,7.06 -4.91,10.39 -4.91,10.39 0,0 0,140.76 0,149.95 0,9.2 13.17,9.93 13.17,18.21 0,8.23 -7.98,10.62 -7.98,10.62 0,0 0,15.56 0,23.63 0,8 7.98,5.41 7.98,14.37 0,9 -7.98,13.03 -7.98,13.03l0 12.72 92.63 0 0 10.64 -2.38 0 0 44.15 3.77 0 0 14.88 7.99 9.95 5.18 0 7.78 3.51 0 17.02 -14.1 0 0 11.58 -6.85 0c0,0 0,21.26 0,30.68 0,9.46 8.47,8.74 8.47,16.8 0,7.99 -8.47,9.45 -8.47,9.45l10.31 252.45 6.15 3.8 0 11.32 23.03 2.84 0 49.56c143.55,6.43 287.15,13.21 430.7,20.62l10.09 0.53c60.06,3.1 106.68,32.77 113.29,69.23zm-1993.93 -203.15l0 -15.54 16.94 0 0 15.54 -16.94 0zm16.94 23.17l0 13.36 -16.94 0 0 -13.36 16.94 0zm-16.94 -3.82l0 -15.54 16.94 0 0 15.54 -16.94 0zm17.7 -72.39l0 18.23c-10.13,-0.51 -18.23,-8.41 -18.94,-18.23l18.94 0zm0 -21.19l0 18.21 -18.94 0c0.75,-9.89 8.85,-17.72 18.94,-18.21zm-17.7 -63l16.94 0 0 13.38 -16.94 0 0 -13.38zm0 -19.35l16.94 0 0 15.54 -16.94 0 0 -15.54zm0 -19.35l16.94 0 0 15.49 -16.94 0 0 -15.49zm0 -19.37l16.94 0 0 15.54 -16.94 0 0 -15.54zm0 -19.96l16.94 0 0 16.14 -16.94 0 0 -16.14zm20.71 215.26l0 -15.54 16.77 0 0 15.54 -16.77 0zm16.77 23.17l0 13.36 -16.77 0 0 -13.36 16.77 0zm-16.77 -3.82l0 -15.54 16.77 0 0 15.54 -16.77 0zm-0.86 -72.39l18.88 0c-0.69,9.82 -8.78,17.72 -18.88,18.23l0 -18.23zm0 -21.19c10.05,0.49 18.14,8.32 18.88,18.21l-18.88 0 0 -18.21zm0.86 -63l16.77 0 0 13.38 -16.77 0 0 -13.38zm0 -19.35l16.77 0 0 15.54 -16.77 0 0 -15.54zm0 -19.35l16.77 0 0 15.49 -16.77 0 0 -15.49zm0 -19.37l16.84 0 0 0.38c0,0.91 -0.07,1.38 -0.07,1.38l0 13.78 -16.77 0 0 -15.54zm0 -19.96l16.84 0 0 16.14 -16.84 0 0 -16.14zm108.86 16.14l0 -16.14 16.95 0 0 16.14 -16.95 0zm0 19.36l0 -13.78c0,0 0,-0.68 0,-1.76l16.95 0 0 15.54 -16.95 0zm0 19.32l0 -15.49 16.95 0 0 15.49 -16.95 0zm0 19.4l0 -15.54 16.95 0 0 15.54 -16.95 0zm0 17.19l0 -13.38 16.95 0 0 13.38 -16.95 0zm-2.85 64.25c1.08,-7.17 5.06,-17.87 19.48,-18.82l0 18.82 -19.48 0zm-0.33 22.67l0 -16.11c0,0 -0.04,-0.78 -0.04,-2.08l19.85 0 0 18.19 -19.81 0zm0 22.67l0 -18.16 19.81 0 0 18.16 -19.81 0zm19.81 27.17l0 15.64 -19.81 0 0 -15.64 19.81 0zm-19.81 -4.49l0 -18.19 19.81 0 0 18.19 -19.81 0zm24.28 -45.35l0 -18.19 19.64 0c0.06,1.3 0,2.08 0,2.08l0 16.11 -19.64 0zm0 22.67l0 -18.16 19.64 0 0 18.16 -19.64 0zm0 22.68l0 -18.19 19.64 0 0 18.19 -19.64 0zm0 4.49l19.64 0 0 15.64 -19.64 0 0 -15.64zm16.42 -150.14l0 13.38 -16.74 0 0 -13.38 16.74 0zm0 -19.35l0 15.54 -16.74 0 0 -15.54 16.74 0zm0 -19.35l0 15.49 -16.74 0 0 -15.49 16.74 0zm0 -19.37l0 15.54 -16.74 0 0 -15.54 16.74 0zm2.84 135.7l-19.26 0 0 -18.82c14.24,1.04 18.24,11.67 19.26,18.82zm-2.84 -139.52l-16.74 0 0 -16.14 16.74 0 0 16.14zm-48.46 -334.02l35.18 0c-2.66,2.12 -5.36,6.58 -5.36,15.75 0,17.77 -9.1,20.71 -9.1,20.71 0,0 -7.67,6.77 3.88,6.77 11.65,0 15.49,0 15.49,0 0,0 3.88,0 15.43,0 11.64,0 3.87,-6.77 3.87,-6.77 0,0 -9,-2.94 -9,-20.71 0,-9.23 -2.76,-13.63 -5.39,-15.75l35.1 0 0 67.6c-5.6,1.88 -5.29,10.41 -5.29,10.41l-69.48 0c0,0 0.35,-8.53 -5.33,-10.41l0 -67.6zm0 -14.88c0,0 5.68,-1.59 5.68,-10.39 0,-8.82 3.66,-41.29 34.41,-41.29 30.8,0 34.41,32.47 34.41,41.29 0,8.8 5.6,10.39 5.6,10.39l0 10.79 -80.1 0 0 -10.79zm40.09 -175.65c8.61,0 15.59,7.03 15.59,15.66 0,8.66 -6.98,15.69 -15.59,15.69 -8.65,0 -15.6,-7.03 -15.6,-15.69 0,-8.63 6.95,-15.66 15.6,-15.66zm119.16 670.63l0 18.23c-10.1,-0.51 -18.19,-8.41 -18.88,-18.23l18.88 0zm0 -21.19l0 18.21 -18.88 0c0.76,-9.89 8.85,-17.72 18.88,-18.21zm-18.71 -86.21l0 -15.49 16.92 0 0 15.49 -16.92 0zm16.92 23.21l0 13.38 -16.92 0 0 -13.38 16.92 0zm-16.92 -3.81l0 -15.54 16.92 0 0 15.54 -16.92 0zm16.92 -54.26l0 15.54 -16.92 0 0 -13.78c0,0 -0.07,-0.68 0,-1.76l16.92 0zm-16.92 -19.96l16.92 0 0 16.14 -16.92 0 0 -16.14zm20.71 78.03l16.77 0 0 13.38 -16.77 0 0 -13.38zm0 -19.35l16.77 0 0 15.54 -16.77 0 0 -15.54zm0 -19.35l16.77 0 0 15.49 -16.77 0 0 -15.49zm0 -19.37l16.77 0 0 0.38c0,0.91 0,1.38 0,1.38l0 13.78 -16.77 0 0 -15.54zm0 -19.96l16.77 0 0 16.14 -16.77 0 0 -16.14zm19.09 162.22c-0.69,9.82 -8.78,17.72 -18.88,18.23l0 -18.23 18.88 0zm-18.88 -2.98l0 -18.21c10.04,0.49 18.13,8.32 18.88,18.21l-18.88 0zm133.51 0.9l19.86 0 0 18.19 -19.86 0 0 -16.11c0,0 -0.06,-0.78 0,-2.08zm19.86 -23.3l0 18.82 -19.48 0c1.02,-7.17 5.06,-17.87 19.48,-18.82zm-18.78 -80.28l16.94 0 0 13.36 -16.94 0 0 -13.36zm0 -19.37l16.94 0 0 15.51 -16.94 0 0 -15.51zm0 -19.35l16.94 0 0 15.52 -16.94 0 0 -15.52zm20.72 38.72l16.77 0 0 13.36 -16.77 0 0 -13.36zm0 -19.37l16.77 0 0 15.51 -16.77 0 0 -15.51zm0 -19.35l16.77 0 0 15.52 -16.77 0 0 -15.52zm2.48 137.82l0 -18.82c14.25,1.04 18.23,11.67 19.31,18.82l-19.31 0zm19.64 6.56l0 16.11 -19.64 0 0 -18.19 19.69 0c0,1.3 -0.05,2.08 -0.05,2.08zm56.47 -546.02c29.03,0 26.92,30.23 26.92,30.23l-53.89 0c0,0 -2,-30.23 26.97,-30.23zm-2.14 -99.33l0 13.63c-10.17,-0.36 -18.26,-6.27 -18.94,-13.63l18.94 0zm0 -15.88l0 13.65 -18.94 0c0.75,-7.4 8.84,-13.27 18.94,-13.65zm2.14 15.88l18.89 0c-0.7,7.36 -8.79,13.27 -18.89,13.63l0 -13.63zm0 -15.88c10.04,0.38 18.13,6.25 18.89,13.65l-18.89 0 0 -13.65zm13.91 -172.43l0 32.34 -8.72 0 0 -20.99c0,0 -0.72,-11.35 8.72,-11.35zm4.98 0c9.44,0 8.68,11.35 8.68,11.35l0 20.99 -8.68 0 0 -32.34zm35.17 -87.63c0.86,-3.7 3.83,-6.2 6.63,-5.57 2.81,0.66 4.43,4.19 3.61,7.9 -0.8,3.7 -3.77,6.2 -6.62,5.57 -2.86,-0.64 -4.49,-4.16 -3.62,-7.9zm24.71 777.25l0 56.7 -21.64 0 0 -56.7c0,0 -0.42,-12.43 10.79,-12.43 11.34,0 10.85,12.43 10.85,12.43zm-21.64 201.88l0 -56.69c0,0 -0.42,-12.45 10.79,-12.45 11.34,0 10.85,12.45 10.85,12.45l0 56.69 -21.64 0zm-30.21 -493.08l0 29.36 -24.43 0 0 -29.36 24.43 0zm-24.43 -42.64l0 -29.4 24.43 0 0 29.4 -24.43 0zm24.43 6.63l0 29.39 -24.43 0 0 -29.39 24.43 0zm-29.44 36.01l0 29.36 -24.45 0 0 -29.36 24.45 0zm-24.45 -42.64l0 -29.4 24.45 0 0 29.4 -24.45 0zm24.45 6.63l0 29.39 -24.45 0 0 -29.39 24.45 0zm-53.95 537.2l0 15.64 -19.64 0 0 -15.64 19.64 0zm-19.64 -27.17l0 -18.16 19.64 0 0 18.16 -19.64 0zm19.64 4.49l0 18.19 -19.64 0 0 -18.19 19.64 0zm-24.06 22.68l0 15.64 -19.86 0 0 -15.64 19.86 0zm-19.86 -27.17l0 -18.16 19.86 0 0 18.16 -19.86 0zm19.86 4.49l0 18.19 -19.86 0 0 -18.19 19.86 0zm287.95 -54.57l0 148.57c-25.45,-0.88 -50.97,-1.67 -76.43,-2.54l0 -146.03 76.43 0zm-67.37 -107.04l25.08 0 0 23.31 -25.08 0 0 -23.31zm0 -29l25.08 0 0 23.33 -25.08 0 0 -23.33zm2.22 -330.54l0 -29.4 24.42 0 0 29.4 -24.42 0zm24.42 42.64l0 29.36 -24.42 0 0 -29.36 24.42 0zm-24.42 -6.62l0 -29.39 24.42 0 0 29.39 -24.42 0zm26.96 -104.16c28.96,0 26.92,30.23 26.92,30.23l-53.88 0c0,0 -2.07,-30.23 26.96,-30.23zm-1.13 -99.33l0 13.63c-10.1,-0.36 -18.19,-6.27 -18.88,-13.63l18.88 0zm0 -15.88l0 13.65 -18.88 0c0.76,-7.4 8.85,-13.27 18.88,-13.65zm-1.41 -172.43l0 32.34 -8.69 0 0 -20.99c0,0 -0.69,-11.35 8.69,-11.35zm2.54 -93.34c3.71,0 6.79,3.06 6.79,6.87 0,3.81 -3.08,6.91 -6.79,6.91 -3.82,0 -6.9,-3.1 -6.9,-6.91 0,-3.81 3.08,-6.87 6.9,-6.87zm11.22 104.69l0 20.99 -8.75 0 0 -32.34c9.4,0 8.75,11.35 8.75,11.35zm8.74 176.96c-0.69,7.36 -8.78,13.27 -18.88,13.63l0 -13.63 18.88 0zm0 -2.23l-18.88 0 0 -13.65c10.03,0.38 18.13,6.25 18.88,13.65zm-15.91 529.24l25.08 0 0 23.31 -25.08 0 0 -23.31zm22.87 -316.9l0 29.36 -24.45 0 0 -29.36 24.45 0zm-24.45 -42.64l0 -29.4 24.45 0 0 29.4 -24.45 0zm24.45 6.63l0 29.39 -24.45 0 0 -29.39 24.45 0zm2.21 323.91l0 23.33 -25.08 0 0 -23.33 25.08 0zm61.28 148.49c0,0 -0.49,-12.45 10.79,-12.45 11.28,0 10.79,12.45 10.79,12.45l0 56.69 -21.58 0 0 -56.69zm0 -145.19c0,0 -0.49,-12.43 10.79,-12.43 11.28,0 10.79,12.43 10.79,12.43l0 56.7 -21.58 0 0 -56.7zm18.01 -782.82c2.87,-0.63 5.84,1.87 6.71,5.57 0.79,3.74 -0.83,7.26 -3.63,7.9 -2.8,0.63 -5.78,-1.87 -6.64,-5.57 -0.86,-3.71 0.76,-7.24 3.56,-7.9zm41.81 93.2l0 32.34 -8.68 0 0 -20.99c0,0 -0.69,-11.35 8.68,-11.35zm5.08 0c9.34,0 8.69,11.35 8.69,11.35l0 20.99 -8.69 0 0 -32.34zm13.8 186.08l-18.88 0c0.76,-7.4 8.85,-13.27 18.88,-13.65l0 13.65zm2.22 2.23l18.87 0c-0.69,7.36 -8.78,13.27 -18.87,13.63l0 -13.63zm0 -15.88c10.02,0.38 18.11,6.25 18.87,13.65l-18.87 0 0 -13.65zm-21.1 15.88l18.88 0 0 13.63c-10.07,-0.36 -18.16,-6.27 -18.88,-13.63zm45.86 129.56l-53.89 0c0,0 -2.04,-30.23 26.91,-30.23 29.04,0 26.98,30.23 26.98,30.23zm29.52 513.71l19.62 0 0 18.19 -19.62 0 0 -16.11c0,0 -0.07,-0.78 0,-2.08zm19.62 -23.3l0 18.82 -19.24 0c1.01,-7.15 5.01,-17.78 19.24,-18.82zm-14.29 -80.28l16.84 0 0 13.36 -16.84 0 0 -13.36zm0 -19.37l16.84 0 0 15.51 -16.84 0 0 -15.51zm0 -19.35l16.84 0 0 15.52 -16.84 0 0 -15.52zm18.78 210.33l19.78 0 0 15.64 -19.78 0 0 -15.64zm0 -22.68l19.78 0 0 18.19 -19.78 0 0 -18.19zm0 -22.65l19.78 0 0 18.16 -19.78 0 0 -18.16zm0 -22.7l19.84 0c0.07,1.3 -0.06,2.08 -0.06,2.08l0 16.11 -19.78 0 0 -18.19zm0 -23.3c14.38,0.95 18.39,11.65 19.46,18.82l-19.46 0 0 -18.82zm1.83 -80.28l16.94 0 0 13.36 -16.94 0 0 -13.36zm0 -19.37l16.94 0 0 15.51 -16.94 0 0 -15.51zm0 -19.35l16.94 0 0 15.52 -16.94 0 0 -15.52zm151.53 144.38l0 18.23c-10.1,-0.51 -18.19,-8.41 -18.95,-18.23l18.95 0zm0 -21.19l0 18.21 -18.95 0c0.83,-9.89 8.85,-17.72 18.95,-18.21zm-16.6 -121.07l16.81 0 0 15.54 -16.78 0 0 -13.78c0,0 -0.03,-0.47 -0.03,-1.38l0 -0.38zm0 -19.96l16.81 0 0 16.14 -16.81 0 0 -16.14zm18.75 162.22l18.94 0c-0.69,9.82 -8.78,17.72 -18.94,18.23l0 -18.23zm0 -21.19c10.09,0.49 18.19,8.32 18.94,18.21l-18.94 0 0 -18.21zm1.79 -63l16.94 0 0 13.38 -16.94 0 0 -13.38zm0 -19.35l16.94 0 0 15.54 -16.94 0 0 -15.54zm0 -19.35l16.94 0 0 15.49 -16.94 0 0 -15.49zm0 -19.37l16.99 0c0.06,1.08 -0.05,1.76 -0.05,1.76l0 13.78 -16.94 0 0 -15.54zm0 -19.96l16.94 0 0 16.14 -16.94 0 0 -16.14zm-3.73 78.03l0 13.38 -16.78 0 0 -13.38 16.78 0zm-16.78 -23.21l0 -15.49 16.78 0 0 15.49 -16.78 0zm16.78 3.86l0 15.54 -16.78 0 0 -15.54 16.78 0zm26.06 142.32l0 107.7 -44.67 0 0 -107.7 44.67 0zm55.03 -518.88l35.23 0c-2.7,2.12 -5.46,6.52 -5.46,15.75 0,17.77 -9.06,20.71 -9.06,20.71 0,0 -7.71,6.77 3.88,6.77 11.61,0 15.49,0 15.49,0 0,0 3.83,0 15.42,0 11.61,0 3.88,-6.77 3.88,-6.77 0,0 -9.07,-2.94 -9.07,-20.71 0,-9.23 -2.73,-13.63 -5.39,-15.75l35.2 0 0 67.6c-5.63,1.88 -5.36,10.41 -5.36,10.41l-69.43 0c0,0 0.33,-8.53 -5.33,-10.41l0 -67.6zm0 -14.88c0,0 5.66,-1.59 5.66,-10.39 0,-8.82 3.6,-41.29 34.42,-41.29 30.8,0 34.41,32.47 34.41,41.29 0,8.8 5.63,10.39 5.63,10.39l0 10.79 -80.12 0 0 -10.79zm40.08 -175.65c8.57,0 15.59,7.03 15.59,15.66 0,8.66 -7.02,15.69 -15.59,15.69 -8.64,0 -15.64,-7.03 -15.64,-15.69 0,-8.63 7,-15.66 15.64,-15.66zm138.84 670.63l0 18.23c-10.07,-0.51 -18.16,-8.41 -18.88,-18.23l18.88 0zm0 -21.19l0 18.21 -18.88 0c0.76,-9.89 8.85,-17.72 18.88,-18.21zm-17.68 -63l16.78 0 0 13.38 -16.78 0 0 -13.38zm0 -19.35l16.78 0 0 15.54 -16.78 0 0 -15.54zm0 -19.35l16.78 0 0 15.49 -16.78 0 0 -15.49zm0 -19.37l16.78 0 0 15.54 -16.78 0 0 -15.54zm0 -19.96l16.78 0 0 16.14 -16.78 0 0 -16.14zm19.85 162.22l18.93 0c-0.7,9.82 -8.79,17.72 -18.93,18.23l0 -18.23zm0 -21.19c10.09,0.49 18.18,8.32 18.93,18.21l-18.93 0 0 -18.21zm0.7 -63l16.94 0 0 13.38 -16.94 0 0 -13.38zm0 -19.35l16.94 0 0 15.54 -16.94 0 0 -15.54zm0 -19.35l16.94 0 0 15.49 -16.94 0 0 -15.49zm0 -19.37l17 0c0.05,1.08 -0.06,1.76 -0.06,1.76l0 13.78 -16.94 0 0 -15.54zm0 -19.96l16.94 0 0 16.14 -16.94 0 0 -16.14zm16.94 238.43l0 13.36 -16.94 0 0 -13.36 16.94 0zm-16.94 -23.17l0 -15.54 16.94 0 0 15.54 -16.94 0zm16.94 3.81l0 15.54 -16.94 0 0 -15.54 16.94 0zm-20.71 19.36l0 13.36 -16.78 0 0 -13.36 16.78 0zm-16.78 -23.17l0 -15.54 16.78 0 0 15.54 -16.78 0zm16.78 3.81l0 15.54 -16.78 0 0 -15.54 16.78 0zm-108.86 -141.04l0 13.38 -16.88 0 0 -13.38 16.88 0zm0 -19.35l0 15.54 -16.88 0 0 -15.54 16.88 0zm0 -19.35l0 15.49 -16.88 0 0 -15.49 16.88 0zm-16.57 116.33l0 -18.82c14.39,0.95 18.44,11.65 19.47,18.82l-19.47 0zm0 22.67l0 -18.19 19.85 0c0,1.3 -0.06,2.08 -0.06,2.08l0 16.11 -19.79 0zm0 22.67l0 -18.16 19.79 0 0 18.16 -19.79 0zm19.79 27.17l0 15.64 -19.79 0 0 -15.64 19.79 0zm-19.79 -4.49l0 -18.19 19.79 0 0 18.19 -19.79 0zm-0.31 -207.54l0 -16.14 16.88 0 0 16.14 -16.88 0zm16.92 3.82c0.06,1.08 -0.04,1.76 -0.04,1.76l0 13.78 -16.88 0 0 -15.54 16.92 0zm-40.67 181.04l0 -18.16 19.64 0 0 18.16 -19.64 0zm19.64 27.17l0 15.64 -19.64 0 0 -15.64 19.64 0zm-19.64 -4.49l0 -18.19 19.64 0 0 18.19 -19.64 0zm19.64 -63.54l0 18.19 -19.64 0 0 -16.11c0,0 -0.11,-0.78 -0.04,-2.08l19.68 0zm0 -23.3l0 18.82 -19.3 0c1.01,-7.15 5.01,-17.78 19.3,-18.82zm-16.46 -82.02l0 -15.49 16.73 0 0 15.49 -16.73 0zm16.73 23.21l0 13.38 -16.73 0 0 -13.38 16.73 0zm-16.73 -3.81l0 -15.54 16.73 0 0 15.54 -16.73 0zm-0.04 -58.08l0 -16.14 16.77 0 0 16.14 -16.77 0zm16.77 3.82l0 15.54 -16.73 0 0 -13.78c0,0 -0.04,-0.47 -0.04,-1.38l0 -0.38 16.77 0zm-287.59 208.21l0 15.64 -19.62 0 0 -15.64 19.62 0zm-19.62 -27.17l0 -18.16 19.62 0 0 18.16 -19.62 0zm19.62 4.49l0 18.19 -19.62 0 0 -18.19 19.62 0zm-49.14 -478.51l0 29.36 -24.43 0 0 -29.36 24.43 0zm-24.43 -42.64l0 -29.4 24.43 0 0 29.4 -24.43 0zm24.43 6.63l0 29.39 -24.43 0 0 -29.39 24.43 0zm-29.44 36.01l0 29.36 -24.45 0 0 -29.36 24.45 0zm-24.45 -42.64l0 -29.4 24.45 0 0 29.4 -24.45 0zm24.45 6.63l0 29.39 -24.45 0 0 -29.39 24.45 0zm-4883.62 536.3l0 -133.91 76.97 0 0 133.91 -38.45 -0.08 -38.52 0.08zm-2303.7 16.41l0 -18.65c2.81,-7.59 53,-132.21 287.07,-136.1l0 1.2c0,1.22 0.81,2.15 1.81,2.15l9.47 0c0.31,0 0.59,-0.11 0.84,-0.25 0.25,0.14 0.49,0.25 0.8,0.25l9.46 0c1.03,0 1.84,-0.93 1.84,-2.15l0 -1.2c233.79,3.89 284.26,128.51 287.07,136.1l0 11.31c-151.98,1.48 -303.95,3.07 -455.92,5.4 -47.46,0.72 -94.96,1.31 -142.44,1.94zm-590.71 10.46c-40.34,0.75 -80.67,1.59 -121,2.36l0 -31.47c2.76,-7.59 52.98,-132.21 287.07,-136.1l0 1.2c0,1.22 0.79,2.15 1.79,2.15l18.94 0c1.02,0 1.79,-0.93 1.79,-2.15l0 -1.2c233.82,3.89 284.27,128.51 287.09,136.1l0 20.37c-36.37,0.53 -72.71,1 -109.11,1.68l-366.57 7.06zm-1963.17 -46.57c33.59,5.21 31.86,38.04 31.86,38.04l0 59.45c-21.24,0.79 -42.48,1.61 -63.7,2.39l0 -61.84c0,0 -1.73,-32.83 31.84,-38.04zm-384.08 -712.6c0,0 0,-15.53 17.46,-15.53 17.48,0 17.48,15.53 17.48,15.53l0 44.74 -34.94 0 0 -44.74zm117.64 485.27l0 85.49 -28.42 0 0 -85.49 28.42 0zm-28.42 -124.98l0 -53.19 28.42 0 0 53.19 -28.42 0zm-10.33 -365.28c0,0 0,-17.31 24.53,-17.31 24.55,0 24.55,17.31 24.55,17.31l0 49.73 -49.08 0 0 -49.73zm93.02 4.99c0,0 0,-15.53 17.48,-15.53 17.48,0 17.48,15.53 17.48,15.53l0 44.74 -34.96 0 0 -44.74zm76.53 485.27l43.94 0 0 109.45 -43.94 0 0 -109.45zm3.94 -184.9c0,0 0.38,-9.52 18.95,-9.52 18.6,0 18.94,9.52 18.94,9.52l0 54.92 -37.89 0 0 -54.92zm77.5 0c0,0 0.41,-9.52 18.95,-9.52 18.59,0 18.94,9.52 18.94,9.52l0 54.92 -37.89 0 0 -54.92zm48.07 184.9l43.88 0 0 109.45 -43.88 0 0 -109.45zm29.41 -184.9c0,0 0.41,-9.52 18.99,-9.52 18.57,0 18.92,9.52 18.92,9.52l0 54.92 -37.91 0 0 -54.92zm77.53 0c0,0 0.38,-9.52 18.94,-9.52 18.59,0 18.93,9.52 18.93,9.52l0 54.92 -37.87 0 0 -54.92zm66.45 184.9l0 109.45 -43.92 0 0 -109.45 43.92 0zm11.06 -184.9c0,0 0.36,-9.52 18.96,-9.52 18.57,0 18.93,9.52 18.93,9.52l0 54.92 -37.89 0 0 -54.92zm74.5 184.9l43.9 0 0 109.45 -43.9 0 0 -109.45zm3.02 -184.9c0,0 0.34,-9.52 18.92,-9.52 18.59,0 18.92,9.52 18.92,9.52l0 54.92 -37.84 0 0 -54.92zm77.51 0c0,0 0.33,-9.52 18.92,-9.52 18.56,0 18.94,9.52 18.94,9.52l0 54.92 -37.86 0 0 -54.92zm48.92 184.9l43.94 0 0 109.45 -43.94 0 0 -109.45zm28.55 -184.9c0,0 0.37,-9.52 18.95,-9.52 18.55,0 18.95,9.52 18.95,9.52l0 54.92 -37.9 0 0 -54.92zm77.52 0c0,0 0.35,-9.52 18.94,-9.52 18.56,0 18.92,9.52 18.92,9.52l0 54.92 -37.86 0 0 -54.92zm67.34 294.35l-43.91 0 0 -109.45 43.91 0 0 109.45zm10.16 -294.35c0,0 0.35,-9.52 18.92,-9.52 18.56,0 18.96,9.52 18.96,9.52l0 54.92 -37.88 0 0 -54.92zm75.39 184.9l43.92 0 0 109.45 -43.92 0 0 -109.45zm2.09 -184.9c0,0 0.36,-9.52 18.94,-9.52 18.59,0 18.99,9.52 18.99,9.52l0 54.92 -37.93 0 0 -54.92zm83.41 -300.37c0,0 0,-15.53 17.48,-15.53 17.49,0 17.49,15.53 17.49,15.53l0 44.74 -34.97 0 0 -44.74zm78.91 -4.99c0,0 0,-17.31 24.53,-17.31 24.55,0 24.55,17.31 24.55,17.31l0 49.73 -49.08 0 0 -49.73zm93.03 4.99c0,0 0,-15.53 17.5,-15.53 17.46,0 17.46,15.53 17.46,15.53l0 44.74 -34.96 0 0 -44.74zm-82.69 360.29l0 -53.19 28.41 0 0 53.19 -28.41 0zm28.41 124.98l0 85.49 -28.41 0 0 -85.49 28.41 0zm-294.89 227.33c33.6,5.21 31.87,38.04 31.87,38.04l0 41.18c-21.24,0.63 -42.48,1.18 -63.72,1.84l0 -43.02c0,0 -1.71,-32.83 31.85,-38.04zm-183.16 0c33.6,5.21 31.84,38.04 31.84,38.04l0 46.88c-21.21,0.67 -42.46,1.41 -63.67,2.11l0 -48.99c0,0 -1.78,-32.83 31.83,-38.04zm-183.15 0c33.58,5.21 31.83,38.04 31.83,38.04l0 52.93c-21.22,0.74 -42.46,1.38 -63.7,2.11l0 -55.04c0,0 -1.7,-32.83 31.87,-38.04zm917.99 -200.63l1.98 0 0 21.76 -1.98 0 0 -21.76zm7.25 0l2 0 0 21.76 -2 0 0 -21.76zm7.29 0l2.02 0 0 21.76 -2.02 0 0 -21.76zm7.29 0l2.06 0 0 21.76 -2.06 0 0 -21.76zm5.75 218.09c2.83,-7.59 53.27,-132.21 287.07,-136.1l0 1.2c0,1.22 0.8,2.15 1.81,2.15l9.49 0c0.31,0 0.54,-0.11 0.82,-0.25 0.25,0.14 0.53,0.25 0.82,0.25l9.46 0c1.01,0 1.81,-0.93 1.81,-2.15l0 -1.2c233.82,3.89 284.25,128.51 287.07,136.1l0 33.71c-199.05,3.94 -398.09,8.27 -597.17,13.17l0 -9c0,-0.51 -0.08,-0.91 -0.29,-1.32l-0.89 -1.41 0 -35.15zm1.54 -218.09l2.08 0 0 21.76 -2.08 0 0 -21.76zm7.31 0l2.05 0 0 21.76 -2.05 0 0 -21.76zm7.36 0l2 0 0 21.76 -2 0 0 -21.76zm7.27 0l2.02 0 0 21.76 -2.02 0 0 -21.76zm7.31 0l2 0 0 21.76 -2 0 0 -21.76zm7.29 0l2.02 0 0 21.76 -2.02 0 0 -21.76zm7.29 0l2.06 0 0 21.76 -2.06 0 0 -21.76zm7.31 0l2.07 0 0 21.76 -2.07 0 0 -21.76zm7.3 0l2.01 0 0 21.76 -2.01 0 0 -21.76zm14.62 0l2.02 0 0 21.76 -2.02 0 0 -21.76zm7.29 0l2.07 0 0 21.76 -2.07 0 0 -21.76zm7.31 0l2.01 0 0 21.76 -2.01 0 0 -21.76zm7.29 0l2.07 0 0 21.76 -2.07 0 0 -21.76zm7.3 0l2.08 0 0 21.76 -2.08 0 0 -21.76zm7.31 0l2.06 0 0 21.76 -2.06 0 0 -21.76zm7.35 0l2.01 0 0 21.76 -2.01 0 0 -21.76zm7.25 0l2.04 0 0 21.76 -2.04 0 0 -21.76zm7.31 0l2.04 0 0 21.76 -2.04 0 0 -21.76zm7.29 0l2.08 0 0 21.76 -2.08 0 0 -21.76zm7.32 0l2.06 0 0 21.76 -2.06 0 0 -21.76zm7.26 0l2.09 0 0 21.76 -2.09 0 0 -21.76zm7.36 0l2.04 0 0 21.76 -2.04 0 0 -21.76zm7.31 0l2.02 0 0 21.76 -2.02 0 0 -21.76zm14.58 0l2.05 0 0 21.76 -2.05 0 0 -21.76zm7.31 0l2.09 0 0 21.76 -2.09 0 0 -21.76zm7.28 0l2.08 0 0 21.76 -2.08 0 0 -21.76zm7.31 0l2.06 0 0 21.76 -2.06 0 0 -21.76zm7.33 0l2 0 0 21.76 -2 0 0 -21.76zm7.33 0l2 0 0 21.76 -2 0 0 -21.76zm7.25 0l2.05 0 0 21.76 -2.05 0 0 -21.76zm7.31 0l2.05 0 0 21.76 -2.05 0 0 -21.76zm7.32 0l2.04 0 0 21.76 -2.04 0 0 -21.76zm7.29 0l2.05 0 0 21.76 -2.05 0 0 -21.76zm7.28 0l2.1 0 0 21.76 -2.1 0 0 -21.76zm7.34 0l2.05 0 0 21.76 -2.05 0 0 -21.76zm7.33 0l1.99 0 0 21.76 -1.99 0 0 -21.76zm52.73 0l2.06 0 0 21.76 -2.06 0 0 -21.76zm7.33 0l2 0 0 21.76 -2 0 0 -21.76zm7.25 0l2.06 0 0 21.76 -2.06 0 0 -21.76zm7.36 0l2.01 0 0 21.76 -2.01 0 0 -21.76zm7.31 0l2 0 0 21.76 -2 0 0 -21.76zm7.26 0l2.03 0 0 21.76 -2.03 0 0 -21.76zm7.32 0l2.02 0 0 21.76 -2.02 0 0 -21.76zm7.29 0l2.06 0 0 21.76 -2.06 0 0 -21.76zm7.31 0l2.05 0 0 21.76 -2.05 0 0 -21.76zm7.27 0l2.09 0 0 21.76 -2.09 0 0 -21.76zm7.36 0l2.02 0 0 21.76 -2.02 0 0 -21.76zm7.28 0l2.05 0 0 21.76 -2.05 0 0 -21.76zm7.32 0l2.02 0 0 21.76 -2.02 0 0 -21.76zm14.65 0l2 0 0 21.76 -2 0 0 -21.76zm7.25 0l2.06 0 0 21.76 -2.06 0 0 -21.76zm7.26 0l2.09 0 0 21.76 -2.09 0 0 -21.76zm7.36 0l2 0 0 21.76 -2 0 0 -21.76zm7.31 0l2 0 0 21.76 -2 0 0 -21.76zm7.29 0l2.02 0 0 21.76 -2.02 0 0 -21.76zm7.29 0l2.07 0 0 21.76 -2.07 0 0 -21.76zm7.3 0l2.06 0 0 21.76 -2.06 0 0 -21.76zm7.31 0l2.06 0 0 21.76 -2.06 0 0 -21.76zm7.33 0l2.02 0 0 21.76 -2.02 0 0 -21.76zm7.27 0l2.04 0 0 21.76 -2.04 0 0 -21.76zm7.31 0l2.03 0 0 21.76 -2.03 0 0 -21.76zm7.31 0l1.68 0 0 21.76 -1.68 0 0 -21.76zm7.34 0l2 0 0 21.76 -2 0 0 -21.76zm14.53 0l2.09 0 0 21.76 -2.09 0 0 -21.76zm7.36 0l2 0 0 21.76 -2 0 0 -21.76zm7.27 0l2.06 0 0 21.76 -2.06 0 0 -21.76zm7.31 0l2.03 0 0 21.76 -2.03 0 0 -21.76zm7.29 0l2.02 0 0 21.76 -2.02 0 0 -21.76zm7.32 0l2.04 0 0 21.76 -2.04 0 0 -21.76zm7.28 0l2.07 0 0 21.76 -2.07 0 0 -21.76zm7.3 0l2.09 0 0 21.76 -2.09 0 0 -21.76zm7.35 0l2 0 0 21.76 -2 0 0 -21.76zm7.27 0l2.05 0 0 21.76 -2.05 0 0 -21.76zm7.31 0l2.03 0 0 21.76 -2.03 0 0 -21.76zm7.3 0l2.01 0 0 21.76 -2.01 0 0 -21.76zm7.31 0l1.98 0 0 21.76 -1.98 0 0 -21.76zm61.82 0l1.98 0 0 21.76 -1.98 0 0 -21.76zm7.25 0l2.04 0 0 21.76 -2.04 0 0 -21.76zm7.31 0l2.01 0 0 21.76 -2.01 0 0 -21.76zm7.28 0l2.01 0 0 21.76 -2.01 0 0 -21.76zm7.28 0l2.05 0 0 21.76 -2.05 0 0 -21.76zm7.31 0l2.05 0 0 21.76 -2.05 0 0 -21.76zm7.3 0l2.09 0 0 21.76 -2.09 0 0 -21.76zm7.31 0l2.04 0 0 21.76 -2.04 0 0 -21.76zm7.33 0l2.04 0 0 21.76 -2.04 0 0 -21.76zm7.31 0l1.98 0 0 21.76 -1.98 0 0 -21.76zm7.28 0l2.04 0 0 21.76 -2.04 0 0 -21.76zm7.28 0l2.05 0 0 21.76 -2.05 0 0 -21.76zm7.32 0l2.04 0 0 21.76 -2.04 0 0 -21.76zm14.58 0l2.07 0 0 21.76 -2.07 0 0 -21.76zm7.35 0l2.05 0 0 21.76 -2.05 0 0 -21.76zm7.3 0l2.01 0 0 21.76 -2.01 0 0 -21.76zm7.26 0l2.07 0 0 21.76 -2.07 0 0 -21.76zm7.32 0l2.04 0 0 21.76 -2.04 0 0 -21.76zm7.33 0l2.02 0 0 21.76 -2.02 0 0 -21.76zm7.27 0l2.07 0 0 21.76 -2.07 0 0 -21.76zm7.31 0l2.05 0 0 21.76 -2.05 0 0 -21.76zm7.33 0l2.03 0 0 21.76 -2.03 0 0 -21.76zm7.3 0l2 0 0 21.76 -2 0 0 -21.76zm7.28 0l2.03 0 0 21.76 -2.03 0 0 -21.76zm7.3 0l2.09 0 0 21.76 -2.09 0 0 -21.76zm7.33 0l2.04 0 0 21.76 -2.04 0 0 -21.76zm7.27 0l2.07 0 0 21.76 -2.07 0 0 -21.76zm14.65 0l2.04 0 0 21.76 -2.04 0 0 -21.76zm7.29 0l2.02 0 0 21.76 -2.02 0 0 -21.76zm7.33 0l2 0 0 21.76 -2 0 0 -21.76zm7.27 0l2.07 0 0 21.76 -2.07 0 0 -21.76zm7.31 0l2.01 0 0 21.76 -2.01 0 0 -21.76zm7.29 0l2.05 0 0 21.76 -2.05 0 0 -21.76zm7.32 0l2.01 0 0 21.76 -2.01 0 0 -21.76zm7.33 0l2 0 0 21.76 -2 0 0 -21.76zm7.27 0l2.02 0 0 21.76 -2.02 0 0 -21.76zm7.33 0l2 0 0 21.76 -2 0 0 -21.76zm7.27 0l2.06 0 0 21.76 -2.06 0 0 -21.76zm7.31 0l2.05 0 0 21.76 -2.05 0 0 -21.76zm7.3 0l2.04 0 0 21.76 -2.04 0 0 -21.76zm51.12 0l2.06 0 0 21.76 -2.06 0 0 -21.76zm7.28 0l2.05 0 0 21.76 -2.05 0 0 -21.76zm7.32 0l2.07 0 0 21.76 -2.07 0 0 -21.76zm7.34 0l2 0 0 21.76 -2 0 0 -21.76zm7.28 0l2.03 0 0 21.76 -2.03 0 0 -21.76zm7.3 0l2.04 0 0 21.76 -2.04 0 0 -21.76zm7.29 0l2.06 0 0 21.76 -2.06 0 0 -21.76zm7.31 0l2.07 0 0 21.76 -2.07 0 0 -21.76zm7.27 0l2.06 0 0 21.76 -2.06 0 0 -21.76zm7.31 0l2.09 0 0 21.76 -2.09 0 0 -21.76zm7.33 0l2.03 0 0 21.76 -2.03 0 0 -21.76zm7.34 0l2 0 0 21.76 -2 0 0 -21.76zm7.25 0l2.04 0 0 21.76 -2.04 0 0 -21.76zm14.62 0l2.04 0 0 21.76 -2.04 0 0 -21.76zm7.29 0l2.06 0 0 21.76 -2.06 0 0 -21.76zm7.29 0l2.07 0 0 21.76 -2.07 0 0 -21.76zm7.33 0l2.03 0 0 21.76 -2.03 0 0 -21.76zm7.32 0l2.02 0 0 21.76 -2.02 0 0 -21.76zm7.27 0l2.04 0 0 21.76 -2.04 0 0 -21.76zm7.33 0l2.05 0 0 21.76 -2.05 0 0 -21.76zm7.29 0l2.07 0 0 21.76 -2.07 0 0 -21.76zm7.31 0l2.04 0 0 21.76 -2.04 0 0 -21.76zm7.31 0l2.05 0 0 21.76 -2.05 0 0 -21.76zm7.31 0l2.03 0 0 21.76 -2.03 0 0 -21.76zm7.3 0l2.03 0 0 21.76 -2.03 0 0 -21.76zm7.27 0l2.04 0 0 21.76 -2.04 0 0 -21.76zm7.31 0l2.07 0 0 21.76 -2.07 0 0 -21.76zm14.59 0l2.06 0 0 21.76 -2.06 0 0 -21.76zm7.34 0l2.05 0 0 21.76 -2.05 0 0 -21.76zm7.28 0l2.05 0 0 21.76 -2.05 0 0 -21.76zm7.33 0l2.03 0 0 21.76 -2.03 0 0 -21.76zm7.27 0l2.04 0 0 21.76 -2.04 0 0 -21.76zm7.34 0l2.04 0 0 21.76 -2.04 0 0 -21.76zm7.28 0l2.07 0 0 21.76 -2.07 0 0 -21.76zm7.28 0l2.08 0 0 21.76 -2.08 0 0 -21.76zm7.35 0l2.02 0 0 21.76 -2.02 0 0 -21.76zm7.27 0l2.04 0 0 21.76 -2.04 0 0 -21.76zm7.33 0l2 0 0 21.76 -2 0 0 -21.76zm7.27 0l2.05 0 0 21.76 -2.05 0 0 -21.76zm7.31 0l2.03 0 0 21.76 -2.03 0 0 -21.76zm61.83 0l1.98 0 0 21.76 -1.98 0 0 -21.76zm7.27 0l2.02 0 0 21.76 -2.02 0 0 -21.76zm7.27 0l2.05 0 0 21.76 -2.05 0 0 -21.76zm7.32 0l2.03 0 0 21.76 -2.03 0 0 -21.76zm7.28 0l2.03 0 0 21.76 -2.03 0 0 -21.76zm7.31 0l2.07 0 0 21.76 -2.07 0 0 -21.76zm7.3 0l2.06 0 0 21.76 -2.06 0 0 -21.76zm7.31 0l2.04 0 0 21.76 -2.04 0 0 -21.76zm7.31 0l2.02 0 0 21.76 -2.02 0 0 -21.76zm7.31 0l2.02 0 0 21.76 -2.02 0 0 -21.76zm7.3 0l2.03 0 0 21.76 -2.03 0 0 -21.76zm7.31 0l2 0 0 21.76 -2 0 0 -21.76zm7.27 0l2.06 0 0 21.76 -2.06 0 0 -21.76zm14.62 0l2 0 0 21.76 -2 0 0 -21.76zm7.67 0l1.66 0 0 21.76 -1.66 0 0 -21.76zm6.93 0l2.03 0 0 21.76 -2.03 0 0 -21.76zm7.34 0l2.02 0 0 21.76 -2.02 0 0 -21.76zm7.28 0l2.01 0 0 21.76 -2.01 0 0 -21.76zm7.3 0l2.04 0 0 21.76 -2.04 0 0 -21.76zm7.31 0l2.05 0 0 21.76 -2.05 0 0 -21.76zm7.29 0l2.05 0 0 21.76 -2.05 0 0 -21.76zm7.32 0l2.01 0 0 21.76 -2.01 0 0 -21.76zm7.31 0l2.02 0 0 21.76 -2.02 0 0 -21.76zm7.28 0l2.05 0 0 21.76 -2.05 0 0 -21.76zm7.32 0l2.04 0 0 21.76 -2.04 0 0 -21.76zm7.29 0l2.05 0 0 21.76 -2.05 0 0 -21.76zm7.29 0l2 0 0 21.76 -2 0 0 -21.76zm14.65 0l2.02 0 0 21.76 -2.02 0 0 -21.76zm7.29 0l2.02 0 0 21.76 -2.02 0 0 -21.76zm7.29 0l2.04 0 0 21.76 -2.04 0 0 -21.76zm7.31 0l2.03 0 0 21.76 -2.03 0 0 -21.76zm7.31 0l2.05 0 0 21.76 -2.05 0 0 -21.76zm7.28 0l2.06 0 0 21.76 -2.06 0 0 -21.76zm7.35 0l2.02 0 0 21.76 -2.02 0 0 -21.76zm7.29 0l2.02 0 0 21.76 -2.02 0 0 -21.76zm7.28 0l2.03 0 0 21.76 -2.03 0 0 -21.76zm7.3 0l2.04 0 0 21.76 -2.04 0 0 -21.76zm7.31 0l2.06 0 0 21.76 -2.06 0 0 -21.76zm7.31 0l2.05 0 0 21.76 -2.05 0 0 -21.76zm7.27 0l2.09 0 0 21.76 -2.09 0 0 -21.76zm52.82 0l2 0 0 21.76 -2 0 0 -21.76zm7.26 0l2.05 0 0 21.76 -2.05 0 0 -21.76zm7.31 0l2.07 0 0 21.76 -2.07 0 0 -21.76zm7.3 0l2.03 0 0 21.76 -2.03 0 0 -21.76zm7.27 0l2.08 0 0 21.76 -2.08 0 0 -21.76zm7.35 0l2.02 0 0 21.76 -2.02 0 0 -21.76zm7.32 0l2.03 0 0 21.76 -2.03 0 0 -21.76zm7.28 0l2 0 0 21.76 -2 0 0 -21.76zm7.29 0l2.05 0 0 21.76 -2.05 0 0 -21.76zm7.3 0l2.08 0 0 21.76 -2.08 0 0 -21.76zm7.33 0l2.02 0 0 21.76 -2.02 0 0 -21.76zm7.25 0l2.08 0 0 21.76 -2.08 0 0 -21.76zm7.35 0l2.04 0 0 21.76 -2.04 0 0 -21.76zm14.6 0l2.03 0 0 21.76 -2.03 0 0 -21.76zm7.3 0l2.01 0 0 21.76 -2.01 0 0 -21.76zm7.28 0l2.09 0 0 21.76 -2.09 0 0 -21.76zm7.31 0l2.05 0 0 21.76 -2.05 0 0 -21.76zm7.3 0l2.06 0 0 21.76 -2.06 0 0 -21.76zm7.33 0l2.03 0 0 21.76 -2.03 0 0 -21.76zm7.29 0l2.07 0 0 21.76 -2.07 0 0 -21.76zm7.32 0l2 0 0 21.76 -2 0 0 -21.76zm7.31 0l2.02 0 0 21.76 -2.02 0 0 -21.76zm7.26 0l2.09 0 0 21.76 -2.09 0 0 -21.76zm7.32 0l2.06 0 0 21.76 -2.06 0 0 -21.76zm7.34 0l2.01 0 0 21.76 -2.01 0 0 -21.76zm7.28 0l2.03 0 0 21.76 -2.03 0 0 -21.76zm7.31 0l2.03 0 0 21.76 -2.03 0 0 -21.76zm14.61 0l2.04 0 0 21.76 -2.04 0 0 -21.76zm7.29 0l2.04 0 0 21.76 -2.04 0 0 -21.76zm7.32 0l2.03 0 0 21.76 -2.03 0 0 -21.76zm7.31 0l2.02 0 0 21.76 -2.02 0 0 -21.76zm7.28 0l2.03 0 0 21.76 -2.03 0 0 -21.76zm7.32 0l2.02 0 0 21.76 -2.02 0 0 -21.76zm7.29 0l2.02 0 0 21.76 -2.02 0 0 -21.76zm7.31 0l2.05 0 0 21.76 -2.05 0 0 -21.76zm7.29 0l2.04 0 0 21.76 -2.04 0 0 -21.76zm7.31 0l2.04 0 0 21.76 -2.04 0 0 -21.76zm7.34 0l2 0 0 21.76 -2 0 0 -21.76zm7.28 0l2.01 0 0 21.76 -2.01 0 0 -21.76zm7.3 0l1.96 0 0 21.76 -1.96 0 0 -21.76zm646.58 144.4l11.53 0 0 31.04 -11.53 0 0 -31.04zm0 -37.62l11.53 0 0 31.01 -11.53 0 0 -31.01zm0 -140.4l11.53 0 0 24.03 -11.53 0 0 -24.03zm0 -29.15l11.53 0 0 24.01 -11.53 0 0 -24.01zm0 -29.86l11.53 0 0 24.01 -11.53 0 0 -24.01zm0 -160l11.53 0 0 23.99 -11.53 0 0 -23.99zm0 -29.17l11.53 0 0 23.99 -11.53 0 0 -23.99zm0 -29.85l11.53 0 0 24.03 -11.53 0 0 -24.03zm0 -93l11.53 0 0 23.99 -11.53 0 0 -23.99zm0 -115l11.53 0 0 30.97 -11.53 0 0 -30.97zm0 -37.73l11.53 0 0 31.08 -11.53 0 0 -31.08zm17.91 701.78l11.51 0 0 31.04 -11.51 0 0 -31.04zm0 -37.62l11.51 0 0 31.01 -11.51 0 0 -31.01zm0 -140.4l11.51 0 0 24.03 -11.51 0 0 -24.03zm0 -29.15l11.51 0 0 24.01 -11.51 0 0 -24.01zm0 -29.86l11.51 0 0 24.01 -11.51 0 0 -24.01zm0 -160l11.51 0 0 23.99 -11.51 0 0 -23.99zm0 -29.17l11.51 0 0 23.99 -11.51 0 0 -23.99zm0 -29.85l11.51 0 0 24.03 -11.51 0 0 -24.03zm0 -93l11.51 0 0 23.99 -11.51 0 0 -23.99zm0 -115l11.51 0 0 30.97 -11.51 0 0 -30.97zm0 -37.73l11.51 0 0 31.08 -11.51 0 0 -31.08zm76.05 701.78l11.47 0 0 31.04 -11.47 0 0 -31.04zm0 -37.62l11.47 0 0 31.01 -11.47 0 0 -31.01zm0 -140.4l11.47 0 0 24.03 -11.47 0 0 -24.03zm0 -29.15l11.47 0 0 24.01 -11.47 0 0 -24.01zm0 -29.86l11.47 0 0 24.01 -11.47 0 0 -24.01zm0 -160l11.47 0 0 23.99 -11.47 0 0 -23.99zm0 -29.17l11.47 0 0 23.99 -11.47 0 0 -23.99zm0 -29.85l11.47 0 0 24.03 -11.47 0 0 -24.03zm0 -93l11.47 0 0 23.99 -11.47 0 0 -23.99zm0 -115l11.47 0 0 30.97 -11.47 0 0 -30.97zm0 -37.73l11.47 0 0 31.08 -11.47 0 0 -31.08zm17.9 701.78l11.46 0 0 31.04 -11.46 0 0 -31.04zm0 -37.62l11.46 0 0 31.01 -11.46 0 0 -31.01zm0 -140.4l11.46 0 0 24.03 -11.46 0 0 -24.03zm0 -29.15l11.46 0 0 24.01 -11.46 0 0 -24.01zm0 -29.86l11.46 0 0 24.01 -11.46 0 0 -24.01zm0 -160l11.46 0 0 23.99 -11.46 0 0 -23.99zm0 -29.17l11.46 0 0 23.99 -11.46 0 0 -23.99zm0 -29.85l11.46 0 0 24.03 -11.46 0 0 -24.03zm0 -93l11.46 0 0 23.99 -11.46 0 0 -23.99zm0 -115l11.46 0 0 30.97 -11.46 0 0 -30.97zm0 -37.73l11.46 0 0 31.08 -11.46 0 0 -31.08zm76 701.78l11.49 0 0 31.04 -11.49 0 0 -31.04zm0 -37.62l11.49 0 0 31.01 -11.49 0 0 -31.01zm0 -140.4l11.49 0 0 24.03 -11.49 0 0 -24.03zm0 -29.15l11.49 0 0 24.01 -11.49 0 0 -24.01zm0 -29.86l11.49 0 0 24.01 -11.49 0 0 -24.01zm0 -160l11.49 0 0 23.99 -11.49 0 0 -23.99zm0 -29.17l11.49 0 0 23.99 -11.49 0 0 -23.99zm0 -29.85l11.49 0 0 24.03 -11.49 0 0 -24.03zm0 -93l11.49 0 0 23.99 -11.49 0 0 -23.99zm0 -115l11.49 0 0 30.97 -11.49 0 0 -30.97zm0 -37.73l11.49 0 0 31.08 -11.49 0 0 -31.08zm17.87 701.78l11.48 0 0 31.04 -11.48 0 0 -31.04zm0 -37.62l11.48 0 0 31.01 -11.48 0 0 -31.01zm0 -140.4l11.48 0 0 24.03 -11.48 0 0 -24.03zm0 -29.15l11.48 0 0 24.01 -11.48 0 0 -24.01zm0 -29.86l11.48 0 0 24.01 -11.48 0 0 -24.01zm0 -160l11.48 0 0 23.99 -11.48 0 0 -23.99zm0 -29.17l11.48 0 0 23.99 -11.48 0 0 -23.99zm0 -29.85l11.48 0 0 24.03 -11.48 0 0 -24.03zm0 -93l11.48 0 0 23.99 -11.48 0 0 -23.99zm0 -115l11.48 0 0 30.97 -11.48 0 0 -30.97zm0 -37.73l11.48 0 0 31.08 -11.48 0 0 -31.08zm76.05 701.78l11.46 0 0 31.04 -11.46 0 0 -31.04zm0 -37.62l11.46 0 0 31.01 -11.46 0 0 -31.01zm0 -140.4l11.46 0 0 24.03 -11.46 0 0 -24.03zm0 -29.15l11.46 0 0 24.01 -11.46 0 0 -24.01zm0 -29.86l11.46 0 0 24.01 -11.46 0 0 -24.01zm0 -160l11.46 0 0 23.99 -11.46 0 0 -23.99zm0 -29.17l11.46 0 0 23.99 -11.46 0 0 -23.99zm0 -29.85l11.46 0 0 24.03 -11.46 0 0 -24.03zm0 -93l11.46 0 0 23.99 -11.46 0 0 -23.99zm0 -115l11.46 0 0 30.97 -11.46 0 0 -30.97zm0 -37.73l11.46 0 0 31.08 -11.46 0 0 -31.08zm17.85 701.78l11.48 0 0 31.04 -11.48 0 0 -31.04zm0 -37.62l11.48 0 0 31.01 -11.48 0 0 -31.01zm0 -140.4l11.48 0 0 24.03 -11.48 0 0 -24.03zm0 -29.15l11.48 0 0 24.01 -11.48 0 0 -24.01zm0 -29.86l11.48 0 0 24.01 -11.48 0 0 -24.01zm0 -160l11.48 0 0 23.99 -11.48 0 0 -23.99zm0 -29.17l11.48 0 0 23.99 -11.48 0 0 -23.99zm0 -29.85l11.48 0 0 24.03 -11.48 0 0 -24.03zm0 -93l11.48 0 0 23.99 -11.48 0 0 -23.99zm0 -115l11.48 0 0 30.97 -11.48 0 0 -30.97zm0 -37.73l11.48 0 0 31.08 -11.48 0 0 -31.08zm76.03 701.78l11.5 0 0 31.04 -11.5 0 0 -31.04zm0 -37.62l11.5 0 0 31.01 -11.5 0 0 -31.01zm0 -140.4l11.5 0 0 24.03 -11.5 0 0 -24.03zm0 -29.15l11.5 0 0 24.01 -11.5 0 0 -24.01zm0 -29.86l11.5 0 0 24.01 -11.5 0 0 -24.01zm0 -160l11.5 0 0 23.99 -11.5 0 0 -23.99zm0 -29.17l11.5 0 0 23.99 -11.5 0 0 -23.99zm0 -29.85l11.5 0 0 24.03 -11.5 0 0 -24.03zm0 -93l11.5 0 0 23.99 -11.5 0 0 -23.99zm0 -115l11.5 0 0 30.97 -11.5 0 0 -30.97zm0 -37.73l11.5 0 0 31.08 -11.5 0 0 -31.08zm17.89 701.78l11.5 0 0 31.04 -11.5 0 0 -31.04zm0 -37.62l11.5 0 0 31.01 -11.5 0 0 -31.01zm0 -140.4l11.5 0 0 24.03 -11.5 0 0 -24.03zm0 -29.15l11.5 0 0 24.01 -11.5 0 0 -24.01zm0 -29.86l11.5 0 0 24.01 -11.5 0 0 -24.01zm0 -160l11.5 0 0 23.99 -11.5 0 0 -23.99zm0 -29.17l11.5 0 0 23.99 -11.5 0 0 -23.99zm0 -29.85l11.5 0 0 24.03 -11.5 0 0 -24.03zm0 -93l11.5 0 0 23.99 -11.5 0 0 -23.99zm0 -115l11.5 0 0 30.97 -11.5 0 0 -30.97zm0 -37.73l11.5 0 0 31.08 -11.5 0 0 -31.08zm121.67 701.78l11.49 0 0 31.04 -11.49 0 0 -31.04zm0 -37.62l11.49 0 0 31.01 -11.49 0 0 -31.01zm0 -140.4l11.49 0 0 24.03 -11.49 0 0 -24.03zm0 -29.15l11.49 0 0 24.01 -11.49 0 0 -24.01zm0 -29.86l11.49 0 0 24.01 -11.49 0 0 -24.01zm0 -160l11.49 0 0 23.99 -11.49 0 0 -23.99zm0 -29.17l11.49 0 0 23.99 -11.49 0 0 -23.99zm0 -29.85l11.49 0 0 24.03 -11.49 0 0 -24.03zm0 -93l11.49 0 0 23.99 -11.49 0 0 -23.99zm17.85 549.05l11.48 0 0 31.04 -11.48 0 0 -31.04zm0 -37.62l11.48 0 0 31.01 -11.48 0 0 -31.01zm0 -140.4l11.48 0 0 24.03 -11.48 0 0 -24.03zm0 -29.15l11.48 0 0 24.01 -11.48 0 0 -24.01zm0 -29.86l11.48 0 0 24.01 -11.48 0 0 -24.01zm0 -160l11.48 0 0 23.99 -11.48 0 0 -23.99zm0 -29.17l11.48 0 0 23.99 -11.48 0 0 -23.99zm0 -29.85l11.48 0 0 24.03 -11.48 0 0 -24.03zm0 -93l11.48 0 0 23.99 -11.48 0 0 -23.99zm90.53 549.05l11.42 0 0 31.04 -11.42 0 0 -31.04zm0 -37.62l11.42 0 0 31.01 -11.42 0 0 -31.01zm0 -140.4l11.42 0 0 24.03 -11.42 0 0 -24.03zm0 -29.15l11.42 0 0 24.01 -11.42 0 0 -24.01zm0 -29.86l11.42 0 0 24.01 -11.42 0 0 -24.01zm0 -160l11.42 0 0 23.99 -11.42 0 0 -23.99zm0 -29.17l11.42 0 0 23.99 -11.42 0 0 -23.99zm0 -29.85l11.42 0 0 24.03 -11.42 0 0 -24.03zm0 -93l11.42 0 0 23.99 -11.42 0 0 -23.99zm17.84 549.05l11.49 0 0 31.04 -11.49 0 0 -31.04zm0 -37.62l11.49 0 0 31.01 -11.49 0 0 -31.01zm0 -140.4l11.49 0 0 24.03 -11.49 0 0 -24.03zm0 -29.15l11.49 0 0 24.01 -11.49 0 0 -24.01zm0 -29.86l11.49 0 0 24.01 -11.49 0 0 -24.01zm0 -160l11.49 0 0 23.99 -11.49 0 0 -23.99zm0 -29.17l11.49 0 0 23.99 -11.49 0 0 -23.99zm0 -29.85l11.49 0 0 24.03 -11.49 0 0 -24.03zm0 -93l11.49 0 0 23.99 -11.49 0 0 -23.99zm90.53 549.05l11.49 0 0 31.04 -11.49 0 0 -31.04zm0 -37.62l11.49 0 0 31.01 -11.49 0 0 -31.01zm0 -140.4l11.49 0 0 24.03 -11.49 0 0 -24.03zm0 -29.15l11.49 0 0 24.01 -11.49 0 0 -24.01zm0 -29.86l11.49 0 0 24.01 -11.49 0 0 -24.01zm0 -160l11.49 0 0 23.99 -11.49 0 0 -23.99zm0 -29.17l11.49 0 0 23.99 -11.49 0 0 -23.99zm0 -29.85l11.49 0 0 24.03 -11.49 0 0 -24.03zm0 -93l11.49 0 0 23.99 -11.49 0 0 -23.99zm17.85 549.05l11.49 0 0 31.04 -11.49 0 0 -31.04zm0 -37.62l11.49 0 0 31.01 -11.49 0 0 -31.01zm0 -140.4l11.49 0 0 24.03 -11.49 0 0 -24.03zm0 -29.15l11.49 0 0 24.01 -11.49 0 0 -24.01zm0 -29.86l11.49 0 0 24.01 -11.49 0 0 -24.01zm0 -160l11.49 0 0 23.99 -11.49 0 0 -23.99zm0 -29.17l11.49 0 0 23.99 -11.49 0 0 -23.99zm0 -29.85l11.49 0 0 24.03 -11.49 0 0 -24.03zm0 -93l11.49 0 0 23.99 -11.49 0 0 -23.99zm90.53 549.05l11.44 0 0 31.04 -11.44 0 0 -31.04zm0 -37.62l11.44 0 0 31.01 -11.44 0 0 -31.01zm0 -140.4l11.44 0 0 24.03 -11.44 0 0 -24.03zm0 -29.15l11.44 0 0 24.01 -11.44 0 0 -24.01zm0 -29.86l11.44 0 0 24.01 -11.44 0 0 -24.01zm0 -160l11.44 0 0 23.99 -11.44 0 0 -23.99zm0 -29.17l11.44 0 0 23.99 -11.44 0 0 -23.99zm0 -29.85l11.44 0 0 24.03 -11.44 0 0 -24.03zm0 -93l11.44 0 0 23.99 -11.44 0 0 -23.99zm17.84 549.05l11.49 0 0 31.04 -11.49 0 0 -31.04zm0 -37.62l11.49 0 0 31.01 -11.49 0 0 -31.01zm0 -140.4l11.49 0 0 24.03 -11.49 0 0 -24.03zm0 -29.15l11.49 0 0 24.01 -11.49 0 0 -24.01zm0 -29.86l11.49 0 0 24.01 -11.49 0 0 -24.01zm0 -160l11.49 0 0 23.99 -11.49 0 0 -23.99zm0 -29.17l11.49 0 0 23.99 -11.49 0 0 -23.99zm0 -29.85l11.49 0 0 24.03 -11.49 0 0 -24.03zm0 -93l11.49 0 0 23.99 -11.49 0 0 -23.99zm90.53 549.05l11.48 0 0 31.04 -11.48 0 0 -31.04zm0 -37.62l11.48 0 0 31.01 -11.48 0 0 -31.01zm0 -140.4l11.48 0 0 24.03 -11.48 0 0 -24.03zm0 -29.15l11.48 0 0 24.01 -11.48 0 0 -24.01zm0 -29.86l11.48 0 0 24.01 -11.48 0 0 -24.01zm0 -160l11.48 0 0 23.99 -11.48 0 0 -23.99zm0 -29.17l11.48 0 0 23.99 -11.48 0 0 -23.99zm0 -29.85l11.48 0 0 24.03 -11.48 0 0 -24.03zm0 -93l11.48 0 0 23.99 -11.48 0 0 -23.99zm17.85 549.05l11.51 0 0 31.04 -11.51 0 0 -31.04zm0 -37.62l11.51 0 0 31.01 -11.51 0 0 -31.01zm0 -140.4l11.51 0 0 24.03 -11.51 0 0 -24.03zm0 -29.15l11.51 0 0 24.01 -11.51 0 0 -24.01zm0 -29.86l11.51 0 0 24.01 -11.51 0 0 -24.01zm0 -160l11.51 0 0 23.99 -11.51 0 0 -23.99zm0 -29.17l11.51 0 0 23.99 -11.51 0 0 -23.99zm0 -29.85l11.51 0 0 24.03 -11.51 0 0 -24.03zm0 -93l11.51 0 0 23.99 -11.51 0 0 -23.99zm90.53 371.03l11.48 0 0 24.03 -11.48 0 0 -24.03zm0 -29.15l11.48 0 0 24.01 -11.48 0 0 -24.01zm0 -29.86l11.48 0 0 24.01 -11.48 0 0 -24.01zm0 -160l11.48 0 0 23.99 -11.48 0 0 -23.99zm0 -29.17l11.48 0 0 23.99 -11.48 0 0 -23.99zm0 -29.85l11.48 0 0 24.03 -11.48 0 0 -24.03zm0 -93l11.48 0 0 23.99 -11.48 0 0 -23.99zm17.85 371.03l11.5 0 0 24.03 -11.5 0 0 -24.03zm0 -29.15l11.5 0 0 24.01 -11.5 0 0 -24.01zm0 -29.86l11.5 0 0 24.01 -11.5 0 0 -24.01zm0 -160l11.5 0 0 23.99 -11.5 0 0 -23.99zm0 -29.17l11.5 0 0 23.99 -11.5 0 0 -23.99zm0 -29.85l11.5 0 0 24.03 -11.5 0 0 -24.03zm0 -93l11.5 0 0 23.99 -11.5 0 0 -23.99zm90.25 549.05l11.48 0 0 31.04 -11.48 0 0 -31.04zm0 -37.62l11.48 0 0 31.01 -11.48 0 0 -31.01zm0 -140.4l11.48 0 0 24.03 -11.48 0 0 -24.03zm0 -29.15l11.48 0 0 24.01 -11.48 0 0 -24.01zm0 -29.86l11.48 0 0 24.01 -11.48 0 0 -24.01zm0 -160l11.48 0 0 23.99 -11.48 0 0 -23.99zm0 -29.17l11.48 0 0 23.99 -11.48 0 0 -23.99zm0 -29.85l11.48 0 0 24.03 -11.48 0 0 -24.03zm0 -93l11.48 0 0 23.99 -11.48 0 0 -23.99zm17.91 549.05l11.48 0 0 31.04 -11.48 0 0 -31.04zm0 -37.62l11.48 0 0 31.01 -11.48 0 0 -31.01zm0 -140.4l11.48 0 0 24.03 -11.48 0 0 -24.03zm0 -29.15l11.48 0 0 24.01 -11.48 0 0 -24.01zm0 -29.86l11.48 0 0 24.01 -11.48 0 0 -24.01zm0 -160l11.48 0 0 23.99 -11.48 0 0 -23.99zm0 -29.17l11.48 0 0 23.99 -11.48 0 0 -23.99zm0 -29.85l11.48 0 0 24.03 -11.48 0 0 -24.03zm0 -93l11.48 0 0 23.99 -11.48 0 0 -23.99zm90.46 549.05l11.48 0 0 31.04 -11.48 0 0 -31.04zm0 -37.62l11.48 0 0 31.01 -11.48 0 0 -31.01zm0 -140.4l11.48 0 0 24.03 -11.48 0 0 -24.03zm0 -29.15l11.48 0 0 24.01 -11.48 0 0 -24.01zm0 -29.86l11.48 0 0 24.01 -11.48 0 0 -24.01zm0 -160l11.48 0 0 23.99 -11.48 0 0 -23.99zm0 -29.17l11.48 0 0 23.99 -11.48 0 0 -23.99zm0 -29.85l11.48 0 0 24.03 -11.48 0 0 -24.03zm0 -93l11.48 0 0 23.99 -11.48 0 0 -23.99zm17.87 549.05l11.49 0 0 31.04 -11.49 0 0 -31.04zm0 -37.62l11.49 0 0 31.01 -11.49 0 0 -31.01zm0 -140.4l11.49 0 0 24.03 -11.49 0 0 -24.03zm0 -29.15l11.49 0 0 24.01 -11.49 0 0 -24.01zm0 -29.86l11.49 0 0 24.01 -11.49 0 0 -24.01zm0 -160l11.49 0 0 23.99 -11.49 0 0 -23.99zm0 -29.17l11.49 0 0 23.99 -11.49 0 0 -23.99zm0 -29.85l11.49 0 0 24.03 -11.49 0 0 -24.03zm0 -93l11.49 0 0 23.99 -11.49 0 0 -23.99zm90.51 549.05l11.5 0 0 31.04 -11.5 0 0 -31.04zm0 -37.62l11.5 0 0 31.01 -11.5 0 0 -31.01zm0 -140.4l11.5 0 0 24.03 -11.5 0 0 -24.03zm0 -29.15l11.5 0 0 24.01 -11.5 0 0 -24.01zm0 -29.86l11.5 0 0 24.01 -11.5 0 0 -24.01zm0 -160l11.5 0 0 23.99 -11.5 0 0 -23.99zm0 -29.17l11.5 0 0 23.99 -11.5 0 0 -23.99zm0 -29.85l11.5 0 0 24.03 -11.5 0 0 -24.03zm0 -93l11.5 0 0 23.99 -11.5 0 0 -23.99zm17.87 549.05l11.48 0 0 31.04 -11.48 0 0 -31.04zm0 -37.62l11.48 0 0 31.01 -11.48 0 0 -31.01zm0 -140.4l11.48 0 0 24.03 -11.48 0 0 -24.03zm0 -29.15l11.48 0 0 24.01 -11.48 0 0 -24.01zm0 -29.86l11.48 0 0 24.01 -11.48 0 0 -24.01zm0 -160l11.48 0 0 23.99 -11.48 0 0 -23.99zm0 -29.17l11.48 0 0 23.99 -11.48 0 0 -23.99zm0 -29.85l11.48 0 0 24.03 -11.48 0 0 -24.03zm0 -93l11.48 0 0 23.99 -11.48 0 0 -23.99zm90.5 549.05l11.51 0 0 31.04 -11.51 0 0 -31.04zm0 -37.62l11.51 0 0 31.01 -11.51 0 0 -31.01zm0 -140.4l11.51 0 0 24.03 -11.51 0 0 -24.03zm0 -29.15l11.51 0 0 24.01 -11.51 0 0 -24.01zm0 -29.86l11.51 0 0 24.01 -11.51 0 0 -24.01zm0 -160l11.51 0 0 23.99 -11.51 0 0 -23.99zm0 -29.17l11.51 0 0 23.99 -11.51 0 0 -23.99zm0 -29.85l11.51 0 0 24.03 -11.51 0 0 -24.03zm0 -93l11.51 0 0 23.99 -11.51 0 0 -23.99zm17.91 549.05l11.45 0 0 31.04 -11.45 0 0 -31.04zm0 -37.62l11.45 0 0 31.01 -11.45 0 0 -31.01zm0 -140.4l11.45 0 0 24.03 -11.45 0 0 -24.03zm0 -29.15l11.45 0 0 24.01 -11.45 0 0 -24.01zm0 -29.86l11.45 0 0 24.01 -11.45 0 0 -24.01zm0 -160l11.45 0 0 23.99 -11.45 0 0 -23.99zm0 -29.17l11.45 0 0 23.99 -11.45 0 0 -23.99zm0 -29.85l11.45 0 0 24.03 -11.45 0 0 -24.03zm0 -93l11.45 0 0 23.99 -11.45 0 0 -23.99zm90.46 549.05l11.52 0 0 31.04 -11.52 0 0 -31.04zm0 -37.62l11.52 0 0 31.01 -11.52 0 0 -31.01zm0 -140.4l11.52 0 0 24.03 -11.52 0 0 -24.03zm0 -29.15l11.52 0 0 24.01 -11.52 0 0 -24.01zm0 -29.86l11.52 0 0 24.01 -11.52 0 0 -24.01zm0 -160l11.52 0 0 23.99 -11.52 0 0 -23.99zm0 -29.17l11.52 0 0 23.99 -11.52 0 0 -23.99zm0 -29.85l11.52 0 0 24.03 -11.52 0 0 -24.03zm0 -93l11.52 0 0 23.99 -11.52 0 0 -23.99zm17.88 549.05l11.48 0 0 31.04 -11.48 0 0 -31.04zm0 -37.62l11.48 0 0 31.01 -11.48 0 0 -31.01zm0 -140.4l11.48 0 0 24.03 -11.48 0 0 -24.03zm0 -29.15l11.48 0 0 24.01 -11.48 0 0 -24.01zm0 -29.86l11.48 0 0 24.01 -11.48 0 0 -24.01zm0 -160l11.48 0 0 23.99 -11.48 0 0 -23.99zm0 -29.17l11.48 0 0 23.99 -11.48 0 0 -23.99zm0 -29.85l11.48 0 0 24.03 -11.48 0 0 -24.03zm0 -93l11.48 0 0 23.99 -11.48 0 0 -23.99zm121.63 549.05l11.5 0 0 31.04 -11.5 0 0 -31.04zm0 -37.62l11.5 0 0 31.01 -11.5 0 0 -31.01zm0 -140.4l11.5 0 0 24.03 -11.5 0 0 -24.03zm0 -29.15l11.5 0 0 24.01 -11.5 0 0 -24.01zm0 -29.86l11.5 0 0 24.01 -11.5 0 0 -24.01zm0 -160l11.5 0 0 23.99 -11.5 0 0 -23.99zm0 -29.17l11.5 0 0 23.99 -11.5 0 0 -23.99zm0 -29.85l11.5 0 0 24.03 -11.5 0 0 -24.03zm0 -93l11.5 0 0 23.99 -11.5 0 0 -23.99zm0 -115l11.5 0 0 30.97 -11.5 0 0 -30.97zm0 -37.73l11.5 0 0 31.08 -11.5 0 0 -31.08zm17.91 701.78l11.51 0 0 31.04 -11.51 0 0 -31.04zm0 -37.62l11.51 0 0 31.01 -11.51 0 0 -31.01zm0 -140.4l11.51 0 0 24.03 -11.51 0 0 -24.03zm0 -29.15l11.51 0 0 24.01 -11.51 0 0 -24.01zm0 -29.86l11.51 0 0 24.01 -11.51 0 0 -24.01zm0 -160l11.51 0 0 23.99 -11.51 0 0 -23.99zm0 -29.17l11.51 0 0 23.99 -11.51 0 0 -23.99zm0 -29.85l11.51 0 0 24.03 -11.51 0 0 -24.03zm0 -93l11.51 0 0 23.99 -11.51 0 0 -23.99zm0 -115l11.51 0 0 30.97 -11.51 0 0 -30.97zm0 -37.73l11.51 0 0 31.08 -11.51 0 0 -31.08zm76.01 701.78l11.5 0 0 31.04 -11.5 0 0 -31.04zm0 -37.62l11.5 0 0 31.01 -11.5 0 0 -31.01zm0 -140.4l11.5 0 0 24.03 -11.5 0 0 -24.03zm0 -29.15l11.5 0 0 24.01 -11.5 0 0 -24.01zm0 -29.86l11.5 0 0 24.01 -11.5 0 0 -24.01zm0 -160l11.5 0 0 23.99 -11.5 0 0 -23.99zm0 -29.17l11.5 0 0 23.99 -11.5 0 0 -23.99zm0 -29.85l11.5 0 0 24.03 -11.5 0 0 -24.03zm0 -93l11.5 0 0 23.99 -11.5 0 0 -23.99zm0 -115l11.5 0 0 30.97 -11.5 0 0 -30.97zm0 -37.73l11.5 0 0 31.08 -11.5 0 0 -31.08zm17.91 701.78l11.44 0 0 31.04 -11.44 0 0 -31.04zm0 -37.62l11.44 0 0 31.01 -11.44 0 0 -31.01zm0 -140.4l11.44 0 0 24.03 -11.44 0 0 -24.03zm0 -29.15l11.44 0 0 24.01 -11.44 0 0 -24.01zm0 -29.86l11.44 0 0 24.01 -11.44 0 0 -24.01zm0 -160l11.44 0 0 23.99 -11.44 0 0 -23.99zm0 -29.17l11.44 0 0 23.99 -11.44 0 0 -23.99zm0 -29.85l11.44 0 0 24.03 -11.44 0 0 -24.03zm0 -93l11.44 0 0 23.99 -11.44 0 0 -23.99zm0 -115l11.44 0 0 30.97 -11.44 0 0 -30.97zm0 -37.73l11.44 0 0 31.08 -11.44 0 0 -31.08zm76 701.78l11.51 0 0 31.04 -11.51 0 0 -31.04zm0 -37.62l11.51 0 0 31.01 -11.51 0 0 -31.01zm0 -140.4l11.51 0 0 24.03 -11.51 0 0 -24.03zm0 -29.15l11.51 0 0 24.01 -11.51 0 0 -24.01zm0 -29.86l11.51 0 0 24.01 -11.51 0 0 -24.01zm0 -160l11.51 0 0 23.99 -11.51 0 0 -23.99zm0 -29.17l11.51 0 0 23.99 -11.51 0 0 -23.99zm0 -29.85l11.51 0 0 24.03 -11.51 0 0 -24.03zm0 -93l11.51 0 0 23.99 -11.51 0 0 -23.99zm0 -115l11.51 0 0 30.97 -11.51 0 0 -30.97zm0 -37.73l11.51 0 0 31.08 -11.51 0 0 -31.08zm17.91 701.78l11.45 0 0 31.04 -11.45 0 0 -31.04zm0 -37.62l11.45 0 0 31.01 -11.45 0 0 -31.01zm0 -140.4l11.45 0 0 24.03 -11.45 0 0 -24.03zm0 -29.15l11.45 0 0 24.01 -11.45 0 0 -24.01zm0 -29.86l11.45 0 0 24.01 -11.45 0 0 -24.01zm0 -160l11.45 0 0 23.99 -11.45 0 0 -23.99zm0 -29.17l11.45 0 0 23.99 -11.45 0 0 -23.99zm0 -29.85l11.45 0 0 24.03 -11.45 0 0 -24.03zm0 -93l11.45 0 0 23.99 -11.45 0 0 -23.99zm0 -115l11.45 0 0 30.97 -11.45 0 0 -30.97zm0 -37.73l11.45 0 0 31.08 -11.45 0 0 -31.08zm76.01 701.78l11.51 0 0 31.04 -11.51 0 0 -31.04zm0 -37.62l11.51 0 0 31.01 -11.51 0 0 -31.01zm0 -140.4l11.51 0 0 24.03 -11.51 0 0 -24.03zm0 -29.15l11.51 0 0 24.01 -11.51 0 0 -24.01zm0 -29.86l11.51 0 0 24.01 -11.51 0 0 -24.01zm0 -160l11.51 0 0 23.99 -11.51 0 0 -23.99zm0 -29.17l11.51 0 0 23.99 -11.51 0 0 -23.99zm0 -29.85l11.51 0 0 24.03 -11.51 0 0 -24.03zm0 -93l11.51 0 0 23.99 -11.51 0 0 -23.99zm0 -115l11.51 0 0 30.97 -11.51 0 0 -30.97zm0 -37.73l11.51 0 0 31.08 -11.51 0 0 -31.08zm17.88 701.78l11.48 0 0 31.04 -11.48 0 0 -31.04zm0 -37.62l11.48 0 0 31.01 -11.48 0 0 -31.01zm0 -140.4l11.48 0 0 24.03 -11.48 0 0 -24.03zm0 -29.15l11.48 0 0 24.01 -11.48 0 0 -24.01zm0 -29.86l11.48 0 0 24.01 -11.48 0 0 -24.01zm0 -160l11.48 0 0 23.99 -11.48 0 0 -23.99zm0 -29.17l11.48 0 0 23.99 -11.48 0 0 -23.99zm0 -29.85l11.48 0 0 24.03 -11.48 0 0 -24.03zm0 -93l11.48 0 0 23.99 -11.48 0 0 -23.99zm0 -115l11.48 0 0 30.97 -11.48 0 0 -30.97zm0 -37.73l11.48 0 0 31.08 -11.48 0 0 -31.08zm76 701.78l11.55 0 0 31.04 -11.55 0 0 -31.04zm0 -37.62l11.55 0 0 31.01 -11.55 0 0 -31.01zm0 -140.4l11.55 0 0 24.03 -11.55 0 0 -24.03zm0 -29.15l11.55 0 0 24.01 -11.55 0 0 -24.01zm0 -29.86l11.55 0 0 24.01 -11.55 0 0 -24.01zm0 -160l11.55 0 0 23.99 -11.55 0 0 -23.99zm0 -29.17l11.55 0 0 23.99 -11.55 0 0 -23.99zm0 -29.85l11.55 0 0 24.03 -11.55 0 0 -24.03zm0 -93l11.55 0 0 23.99 -11.55 0 0 -23.99zm0 -115l11.55 0 0 30.97 -11.55 0 0 -30.97zm0 -37.73l11.55 0 0 31.08 -11.55 0 0 -31.08zm17.92 701.78l11.48 0 0 31.04 -11.48 0 0 -31.04zm0 -37.62l11.48 0 0 31.01 -11.48 0 0 -31.01zm0 -140.4l11.48 0 0 24.03 -11.48 0 0 -24.03zm0 -29.15l11.48 0 0 24.01 -11.48 0 0 -24.01zm0 -29.86l11.48 0 0 24.01 -11.48 0 0 -24.01zm0 -160l11.48 0 0 23.99 -11.48 0 0 -23.99zm0 -29.17l11.48 0 0 23.99 -11.48 0 0 -23.99zm0 -29.85l11.48 0 0 24.03 -11.48 0 0 -24.03zm0 -93l11.48 0 0 23.99 -11.48 0 0 -23.99zm0 -115l11.48 0 0 30.97 -11.48 0 0 -30.97zm0 -37.73l11.48 0 0 31.08 -11.48 0 0 -31.08zm470.6 314.79l15.6 0 0 5.93 1.03 2.47 0 63.81 -16.63 0 0 -72.21zm21.69 8.4l0.97 -2.47 0 -5.93 15.32 0 0 5.93 0.97 2.47 0 63.81 -17.26 0 0 -63.81zm16.13 -86.84c0,0 8.04,-19.2 34.9,-19.2 26.91,0 34.96,19.2 34.96,19.2l0 19.61 -69.86 0 0 -19.61zm55.68 -144.55c3.88,-15.99 8.13,-31.92 12.88,-47.65 9.5,-31.57 20.94,-62.5 33.77,-92.77 13.07,-30.21 27.52,-59.85 43.71,-88.52 16.12,-28.6 33.65,-56.54 53.67,-82.64 -9.78,13.25 -18.67,27.05 -27.31,41.02 -8.62,13.97 -16.88,28.14 -24.76,42.55 -15.74,28.82 -30.26,58.33 -43.03,88.54 -13,30.14 -24.4,61.03 -34.22,92.39 -4.96,15.64 -9.44,31.45 -13.53,47.37 -4.15,15.93 -7.82,31.91 -11,48.07 2.8,-16.2 6.09,-32.33 9.82,-48.36zm168.04 -311.58c-6.86,14.2 -13.22,28.58 -19.43,43.03 -6.31,14.43 -12.29,28.97 -18.13,43.55 -11.59,29.26 -22.48,58.77 -31.98,88.79 -9.72,29.9 -18.07,60.28 -24.6,91.04 -3.24,15.36 -5.98,30.88 -7.95,46.49 -2.08,15.57 -3.43,31.28 -3.66,47.04 -0.15,-15.76 0.76,-31.49 2.44,-47.17 1.78,-15.69 4.26,-31.3 7.34,-46.75 6.15,-30.95 14.56,-61.4 24.06,-91.43 9.76,-29.99 20.59,-59.56 32.62,-88.68 11.99,-29.13 24.93,-57.87 39.29,-85.91zm-17.96 -143.18l0.97 -2.23 0 -6.49 20.6 0 0 6.49 0.97 2.23 0 58.74 -22.54 0 0 -58.74zm0 -73.04l0.97 -2.2 0 -4.76 20.6 0 0 4.76 0.97 2.2 0 55.87 -22.54 0 0 -55.87zm27.6 73.04l0.97 -2.23 0 -6.49 20.57 0 0 6.49 0.97 2.23 0 58.74 -22.51 0 0 -58.74zm0 -73.04l0.97 -2.2 0 -4.76 20.57 0 0 4.76 0.97 2.2 0 55.87 -22.51 0 0 -55.87zm38.9 653.15c26.87,0 34.96,19.2 34.96,19.2l0 19.61 -69.92 0 0 -19.61c0,0 8.05,-19.2 34.96,-19.2zm1.25 -256.95l-0.32 89.98 -0.33 45.01 -0.6 44.97 -0.65 -44.97 -0.32 -45.01 -0.27 -89.98 0.27 -89.99 0.32 -44.97 0.65 -45.02 0.6 45.02 0.33 44.97 0.32 89.99zm-12.52 -323.16l0.97 -2.23 0 -6.49 20.54 0 0 6.49 0.97 2.23 0 58.74 -22.48 0 0 -58.74zm0 -73.04l0.97 -2.2 0 -4.76 20.54 0 0 4.76 0.97 2.2 0 55.87 -22.48 0 0 -55.87zm20.16 -33.1c0,4.93 -3.98,8.9 -8.89,8.9 -4.91,0 -8.95,-3.97 -8.95,-8.9 0,-4.95 4.04,-8.95 8.95,-8.95 4.91,0 8.89,4 8.89,8.95zm-20 -156.08l22.22 0 0 55.36 -22.22 0 0 -55.36zm3.82 -46.99l14.52 0 0 10.39 -14.52 0 0 -10.39zm0 -51.23l14.52 0 0 46.69 -14.52 0 0 -46.69zm0 -47.85c0,0 0,-7.43 7.29,-7.43 7.23,0 7.23,7.3 7.23,7.43l0 20.83 -14.52 0 0 -20.83zm23.64 408.29l0.97 -2.23 0 -6.49 20.55 0 0 6.49 0.97 2.23 0 58.74 -22.49 0 0 -58.74zm0 -73.04l0.97 -2.2 0 -4.76 20.55 0 0 4.76 0.97 2.2 0 55.87 -22.49 0 0 -55.87zm27.61 73.04l0.97 -2.23 0 -6.49 20.56 0 0 6.49 0.97 2.23 0 58.74 -22.5 0 0 -58.74zm0 -73.04l0.97 -2.2 0 -4.76 20.56 0 0 4.76 0.97 2.2 0 55.87 -22.5 0 0 -55.87zm43.88 302.13c12.02,29.12 22.86,58.69 32.57,88.68 9.54,30.03 17.95,60.48 24.06,91.43 3.08,15.45 5.61,31.06 7.34,46.75 1.73,15.68 2.63,31.41 2.42,47.17 -0.17,-15.76 -1.56,-31.47 -3.61,-47.04 -2,-15.61 -4.76,-31.13 -7.98,-46.49 -6.53,-30.76 -14.89,-61.14 -24.55,-91.04 -9.5,-30.02 -20.44,-59.53 -32.05,-88.79 -5.77,-14.58 -11.8,-29.12 -18.12,-43.55 -6.19,-14.45 -12.56,-28.83 -19.43,-43.03 14.35,28.04 27.31,56.78 39.35,85.91zm38.38 -3.27c16.15,28.67 30.65,58.31 43.71,88.52 12.83,30.27 24.21,61.2 33.72,92.77 4.74,15.73 9.05,31.66 12.89,47.65 3.78,16.03 7.06,32.16 9.87,48.36 -3.19,-16.16 -6.9,-32.14 -11.01,-48.07 -4.09,-15.92 -8.64,-31.73 -13.53,-47.37 -9.88,-31.36 -21.22,-62.25 -34.26,-92.39 -12.79,-30.21 -27.29,-59.72 -42.99,-88.54 -7.88,-14.41 -16.18,-28.58 -24.82,-42.55 -8.64,-13.97 -17.53,-27.77 -27.25,-41.02 19.96,26.1 37.49,54.04 53.67,82.64zm146.03 373.49l0 19.61 -69.89 0 0 -19.61c0,0 8.09,-19.2 35,-19.2 26.87,0 34.89,19.2 34.89,19.2zm15.18 78.44l0 5.93 0.97 2.47 0 63.81 -17.26 0 0 -63.81 0.97 -2.47 0 -5.93 15.32 0zm6.03 8.4l1.03 -2.47 0 -5.93 15.59 0 0 72.21 -16.62 0 0 -63.81zm-27.46 0l0 63.81 -17.26 0 0 -63.81 0.97 -2.47 0 -5.93 15.32 0 0 5.93 0.97 2.47zm-22.32 0l0 63.81 -17.27 0 0 -63.81 0.92 -2.47 0 -5.93 15.37 0 0 5.93 0.98 2.47zm-22.33 0l0 63.81 -17.29 0 0 -63.81 0.93 -2.47 0 -5.93 15.33 0 0 5.93 1.03 2.47zm-179.86 -8.4l0 5.93 0.97 2.47 0 63.81 -17.26 0 0 -63.81 0.97 -2.47 0 -5.93 15.32 0zm36.31 -220.24c-0.76,-15.18 -1.79,-30.31 -3.08,-45.49 -2.65,-30.28 -6.15,-60.47 -10.74,-90.52 -4.36,-30.07 -9.86,-60 -16.13,-89.77 -3.07,-14.84 -6.46,-29.66 -10.09,-44.46 -3.49,-14.75 -7.29,-29.49 -11.59,-44.09 9.28,28.98 16.88,58.47 23.52,88.15 6.68,29.72 12.07,59.68 16.77,89.76 4.36,30.17 7.88,60.42 10.14,90.8 1.07,15.2 1.9,30.38 2.38,45.6 0.42,15.18 0.59,30.42 0.38,45.63 -0.21,-15.21 -0.72,-30.41 -1.56,-45.61zm-13.01 228.64l0 63.81 -17.27 0 0 -63.81 0.97 -2.47 0 -5.93 15.38 0 0 5.93 0.92 2.47zm22.39 0l0 63.81 -17.26 0 0 -63.81 0.97 -2.47 0 -5.93 15.32 0 0 5.93 0.97 2.47zm22.38 0l0 63.81 -17.31 0 0 -63.81 0.98 -2.47 0 -5.93 15.31 0 0 5.93 1.02 2.47zm6.1 -67.23l-69.91 0 0 -19.61c0,0 8.03,-19.2 34.95,-19.2 26.87,0 34.96,19.2 34.96,19.2l0 19.61zm15.23 58.83l0 5.93 1 2.47 0 63.81 -17.26 0 0 -63.81 0.97 -2.47 0 -5.93 15.29 0zm23.34 8.4l0 63.81 -17.25 0 0 -63.81 0.96 -2.47 0 -5.93 15.32 0 0 5.93 0.97 2.47zm22.34 0l0 63.81 -17.22 0 0 -63.81 0.97 -2.47 0 -5.93 15.28 0 0 5.93 0.97 2.47zm17.36 -67.23l-69.85 0 0 -19.61c0,0 8.03,-19.2 34.95,-19.2 26.87,0 34.9,19.2 34.9,19.2l0 19.61zm4.97 67.23l0 63.81 -17.21 0 0 -63.81 0.97 -2.47 0 -5.93 15.32 0 0 5.93 0.92 2.47zm-178.78 0l0 63.81 -17.59 0 0 -63.81 0.97 -2.47 0 -5.93 15.59 0 0 5.93 1.03 2.47zm-22.65 0l0 63.81 -17.59 0 0 -63.81 0.97 -2.47 0 -5.93 15.59 0 0 5.93 1.03 2.47zm-180.19 -8.4l0 5.93 0.97 2.47 0 63.81 -17.26 0 0 -63.81 1.03 -2.47 0 -5.93 15.26 0zm23.37 8.4l0 63.81 -17.26 0 0 -63.81 0.97 -2.47 0 -5.93 15.32 0 0 5.93 0.97 2.47zm22.38 0l0 63.81 -17.32 0 0 -63.81 0.97 -2.47 0 -5.93 15.34 0 0 5.93 1.01 2.47zm12.9 -67.23l-69.86 0 0 -19.61c0,0 7.99,-19.2 34.9,-19.2 26.93,0 34.96,19.2 34.96,19.2l0 19.61zm8.47 58.83l0 5.93 0.96 2.47 0 63.81 -17.25 0 0 -63.81 0.91 -2.47 0 -5.93 15.38 0zm23.31 8.4l0 63.81 -17.26 0 0 -63.81 1 -2.47 0 -5.93 15.29 0 0 5.93 0.97 2.47zm22.33 0l0 63.81 -17.22 0 0 -63.81 0.98 -2.47 0 -5.93 15.31 0 0 5.93 0.93 2.47zm22.38 0l0 63.81 -17.25 0 0 -63.81 0.96 -2.47 0 -5.93 15.33 0 0 5.93 0.96 2.47zm1.83 -86.84l0 19.61 -69.92 0 0 -19.61c0,0 8.06,-19.2 34.96,-19.2 26.87,0 34.96,19.2 34.96,19.2zm-2.14 -367.58c-6.22,29.77 -11.72,59.7 -16.15,89.77 -4.57,30.05 -8.09,60.24 -10.68,90.52 -1.28,15.18 -2.36,30.31 -3.12,45.49 -0.8,15.2 -1.35,30.4 -1.56,45.61 -0.17,-15.21 -0.06,-30.45 0.38,-45.63 0.48,-15.22 1.29,-30.4 2.42,-45.6 2.22,-30.38 5.71,-60.63 10.14,-90.8 4.59,-30.08 10.1,-60.04 16.73,-89.76 6.64,-29.68 14.18,-59.17 23.56,-88.15 -4.3,14.6 -8.09,29.34 -11.65,44.09 -3.6,14.8 -7,29.62 -10.07,44.46zm22.69 454.42l0 63.81 -17.26 0 0 -63.81 0.93 -2.47 0 -5.93 15.36 0 0 5.93 0.97 2.47zm-178.87 0l0 63.81 -17.27 0 0 -63.81 1.03 -2.47 0 -5.93 15.26 0 0 5.93 0.98 2.47zm-22.33 0l0 63.81 -17.32 0 0 -63.81 1.03 -2.47 0 -5.93 15.32 0 0 5.93 0.97 2.47zm-22.34 0l0 63.81 -17.32 0 0 -63.81 0.97 -2.47 0 -5.93 15.32 0 0 5.93 1.03 2.47z"/>
   <polygon class="fil3 str0" points="-0.01,3395.32 25399.99,3395.32 25399.99,3572.82 -0.01,3572.82 "/>
  </g>
 </g>
</svg>
